<svg width="205" height="194" viewBox="0 0 205 194" fill="none" xmlns="http://www.w3.org/2000/svg">
<path d="M199.02 182.66H150.4L161.99 130.96C162.72 127.74 161.95 124.42 159.87 121.84C157.81 119.26 154.74 117.77 151.44 117.77H52.78C49.48 117.77 46.4 119.27 44.35 121.84C42.27 124.42 41.5 127.74 42.23 130.96L53.82 182.66H5.19C2.3 182.66 0 184.99 0 187.85C0 190.71 2.31 193.04 5.19 193.04H199.02C201.89 193.04 204.21 190.71 204.21 187.85C204.21 184.99 201.88 182.66 199.02 182.66ZM139.76 182.66V182.7H64.45V182.66L52.36 128.7C52.34 128.64 52.32 128.49 52.44 128.33C52.56 128.16 52.73 128.16 52.77 128.16H151.43C151.43 128.16 151.64 128.16 151.76 128.33C151.88 128.5 151.86 128.64 151.84 128.7L139.75 182.66H139.76Z" fill="#E7FC41"/>
<path d="M139.76 182.659H64.4502V182.699H139.76V182.659Z" fill="#E7FC41"/>
<path d="M56.1401 193.04V193.08H148.07V193.04H56.1401Z" fill="#E7FC41"/>
<path d="M143.76 108.86C142 108.86 140.29 107.97 139.31 106.35C138.97 105.82 130.01 92.2401 102.18 92.2401C74.3498 92.2401 65.2298 105.85 64.8598 106.43C63.3198 108.82 60.1298 109.55 57.7198 108.04C55.3098 106.53 54.5498 103.38 56.0398 100.96C56.5198 100.18 68.1398 81.8701 102.19 81.8701C136.24 81.8701 147.73 100.21 148.21 100.99C149.69 103.44 148.91 106.64 146.45 108.12C145.61 108.63 144.68 108.87 143.77 108.87L143.76 108.86Z" fill="#E7FC41"/>
<path d="M102.18 78.15C80.6299 78.15 63.1099 60.62 63.1099 39.08C63.1099 17.54 80.6399 0 102.18 0C123.72 0 141.25 17.53 141.25 39.07C141.25 60.61 123.72 78.14 102.18 78.14V78.15ZM102.18 10.39C86.3599 10.39 73.4899 23.26 73.4899 39.08C73.4899 54.9 86.3599 67.77 102.18 67.77C118 67.77 130.87 54.9 130.87 39.08C130.87 23.26 118 10.39 102.18 10.39Z" fill="#E7FC41"/>
<path d="M102.18 170.15C93.1398 170.15 85.7798 162.79 85.7798 153.75C85.7798 144.71 93.1398 137.35 102.18 137.35C111.22 137.35 118.58 144.71 118.58 153.75C118.58 162.79 111.22 170.15 102.18 170.15ZM102.18 147.74C98.8598 147.74 96.1698 150.44 96.1698 153.75C96.1698 157.06 98.8698 159.76 102.18 159.76C105.49 159.76 108.19 157.06 108.19 153.75C108.19 150.44 105.49 147.74 102.18 147.74Z" fill="#E7FC41"/>
</svg>
