<svg width="195" height="37" viewBox="0 0 195 37" fill="none" xmlns="http://www.w3.org/2000/svg">
<path opacity="0.8" d="M41.6123 24.187H44.312C44.3739 24.7313 44.6615 25.1735 45.1748 25.5137C45.6943 25.8477 46.3283 26.0146 47.0767 26.0146C47.8188 26.0146 48.4219 25.8569 48.8857 25.5415C49.3558 25.2199 49.5908 24.8117 49.5908 24.3169C49.5908 23.884 49.4176 23.5345 49.0713 23.2686C48.7249 23.0026 48.1466 22.7799 47.3364 22.6006L45.5923 22.2202C43.1369 21.6945 41.9092 20.4482 41.9092 18.4814C41.9092 17.2568 42.3854 16.2673 43.3379 15.5127C44.2965 14.7581 45.5273 14.3809 47.0303 14.3809C48.5765 14.3809 49.8104 14.7489 50.7319 15.4849C51.6535 16.2147 52.1266 17.1888 52.1514 18.4072H49.5259C49.4826 17.8444 49.2321 17.4022 48.7744 17.0806C48.3229 16.7528 47.7446 16.5889 47.0396 16.5889C46.3468 16.5889 45.7871 16.7404 45.3604 17.0435C44.9398 17.3465 44.7295 17.7454 44.7295 18.2402C44.7295 18.6484 44.8996 18.9793 45.2397 19.2329C45.5861 19.4865 46.1458 19.703 46.9189 19.8823L48.5425 20.2256C49.8846 20.5101 50.8618 20.9554 51.4741 21.5615C52.0864 22.1615 52.3926 22.9717 52.3926 23.9922C52.3926 25.291 51.904 26.3239 50.9268 27.0908C49.9495 27.8516 48.6291 28.2319 46.9653 28.2319C45.3511 28.2319 44.0646 27.8732 43.106 27.1558C42.1535 26.4321 41.6556 25.4425 41.6123 24.187ZM54.6099 15.7632H57.3188V18.0547H59.1558V20.0957H57.3188V24.855C57.3188 25.6034 57.7085 25.9775 58.4878 25.9775C58.7414 25.9775 58.9609 25.9621 59.1465 25.9312V27.9258C58.8311 28 58.4012 28.0371 57.8569 28.0371C56.688 28.0371 55.853 27.8268 55.3521 27.4062C54.8573 26.9857 54.6099 26.2899 54.6099 25.3188V20.0957H53.209V18.0547H54.6099V15.7632ZM64.3882 26.2002C64.9881 26.2002 65.4953 26.027 65.9097 25.6807C66.3302 25.3281 66.5405 24.8859 66.5405 24.354V23.6304L64.4438 23.7603C63.9367 23.7974 63.5439 23.9242 63.2656 24.1406C62.9935 24.3571 62.8574 24.6416 62.8574 24.9941C62.8574 25.3652 62.9966 25.659 63.2749 25.8755C63.5532 26.092 63.9243 26.2002 64.3882 26.2002ZM63.4976 28.1577C62.5389 28.1577 61.7441 27.8763 61.1133 27.3135C60.4824 26.7507 60.167 26.027 60.167 25.1426C60.167 24.2396 60.501 23.5314 61.1689 23.0181C61.8369 22.5047 62.7925 22.2109 64.0356 22.1367L66.5405 21.9883V21.3296C66.5405 20.8719 66.389 20.5132 66.0859 20.2534C65.7891 19.9937 65.384 19.8638 64.8706 19.8638C64.3758 19.8638 63.9707 19.9751 63.6553 20.1978C63.346 20.4204 63.1574 20.7204 63.0894 21.0977H60.6123C60.6618 20.1204 61.0793 19.335 61.8647 18.7412C62.6502 18.1413 63.6924 17.8413 64.9912 17.8413C66.2653 17.8413 67.2858 18.1444 68.0527 18.7505C68.8197 19.3566 69.2031 20.1606 69.2031 21.1626V28H66.5869V26.4785H66.5312C66.2591 26.998 65.8447 27.4093 65.2881 27.7124C64.7314 28.0093 64.1346 28.1577 63.4976 28.1577ZM70.9565 28V18.0547H73.5728V19.8452H73.6284C73.8016 19.2144 74.0923 18.7319 74.5005 18.3979C74.9087 18.064 75.4066 17.897 75.9941 17.897C76.2786 17.897 76.5353 17.931 76.7642 17.999V20.3833C76.5106 20.2782 76.1828 20.2256 75.7808 20.2256C75.1128 20.2256 74.5933 20.4204 74.2222 20.8101C73.8511 21.1997 73.6655 21.744 73.6655 22.4429V28H70.9565ZM78.6011 15.7632H81.3101V18.0547H83.147V20.0957H81.3101V24.855C81.3101 25.6034 81.6997 25.9775 82.479 25.9775C82.7326 25.9775 82.9521 25.9621 83.1377 25.9312V27.9258C82.8223 28 82.3924 28.0371 81.8481 28.0371C80.6792 28.0371 79.8442 27.8268 79.3433 27.4062C78.8485 26.9857 78.6011 26.2899 78.6011 25.3188V20.0957H77.2002V18.0547H78.6011V15.7632ZM93.8159 18.0547V28H91.1997V26.2095H91.144C90.6245 27.5269 89.6318 28.1855 88.166 28.1855C87.0775 28.1855 86.2085 27.8547 85.5591 27.1929C84.9097 26.5249 84.585 25.6157 84.585 24.4653V18.0547H87.2939V23.8994C87.2939 24.5612 87.4517 25.0653 87.7671 25.4116C88.0887 25.758 88.5495 25.9312 89.1494 25.9312C89.7493 25.9312 90.2256 25.7332 90.5781 25.3374C90.9307 24.9416 91.1069 24.4128 91.1069 23.751V18.0547H93.8159ZM101.386 17.897C102.648 17.897 103.641 18.3516 104.364 19.2607C105.094 20.1699 105.459 21.4255 105.459 23.0273C105.459 24.623 105.1 25.8786 104.383 26.7939C103.665 27.7031 102.682 28.1577 101.433 28.1577C100.721 28.1577 100.094 27.9969 99.5493 27.6753C99.0112 27.3475 98.6092 26.8991 98.3433 26.3301H98.2876V31.2471H95.5786V18.0547H98.2505V19.7896H98.3062C98.5783 19.1958 98.9803 18.7319 99.5122 18.3979C100.05 18.064 100.675 17.897 101.386 17.897ZM100.477 25.9775C101.151 25.9775 101.686 25.7116 102.082 25.1797C102.484 24.6478 102.685 23.9303 102.685 23.0273C102.685 22.1243 102.484 21.4069 102.082 20.875C101.686 20.3369 101.151 20.0679 100.477 20.0679C99.8153 20.0679 99.2834 20.34 98.8813 20.8843C98.4793 21.4224 98.2783 22.1367 98.2783 23.0273C98.2783 23.9242 98.4762 24.6416 98.8721 25.1797C99.2741 25.7116 99.8091 25.9775 100.477 25.9775ZM115.748 25.6807V28H107.092V14.6128H109.894V25.6807H115.748ZM121.017 26.2002C121.617 26.2002 122.124 26.027 122.539 25.6807C122.959 25.3281 123.169 24.8859 123.169 24.354V23.6304L121.073 23.7603C120.566 23.7974 120.173 23.9242 119.895 24.1406C119.622 24.3571 119.486 24.6416 119.486 24.9941C119.486 25.3652 119.625 25.659 119.904 25.8755C120.182 26.092 120.553 26.2002 121.017 26.2002ZM120.126 28.1577C119.168 28.1577 118.373 27.8763 117.742 27.3135C117.111 26.7507 116.796 26.027 116.796 25.1426C116.796 24.2396 117.13 23.5314 117.798 23.0181C118.466 22.5047 119.421 22.2109 120.665 22.1367L123.169 21.9883V21.3296C123.169 20.8719 123.018 20.5132 122.715 20.2534C122.418 19.9937 122.013 19.8638 121.5 19.8638C121.005 19.8638 120.6 19.9751 120.284 20.1978C119.975 20.4204 119.786 20.7204 119.718 21.0977H117.241C117.291 20.1204 117.708 19.335 118.494 18.7412C119.279 18.1413 120.321 17.8413 121.62 17.8413C122.894 17.8413 123.915 18.1444 124.682 18.7505C125.449 19.3566 125.832 20.1606 125.832 21.1626V28H123.216V26.4785H123.16C122.888 26.998 122.474 27.4093 121.917 27.7124C121.36 28.0093 120.764 28.1577 120.126 28.1577ZM127.585 28V18.0547H130.202V19.8267H130.257C130.529 19.1958 130.925 18.7134 131.445 18.3794C131.971 18.0392 132.611 17.8691 133.365 17.8691C134.466 17.8691 135.317 18.1969 135.917 18.8525C136.516 19.5081 136.816 20.4204 136.816 21.5894V28H134.107V22.1553C134.107 21.4997 133.953 20.9956 133.644 20.6431C133.334 20.2905 132.88 20.1143 132.28 20.1143C131.68 20.1143 131.197 20.3153 130.833 20.7173C130.474 21.1193 130.294 21.645 130.294 22.2944V28H127.585ZM142.225 28.1577C140.982 28.1577 139.995 27.6969 139.266 26.7754C138.536 25.8538 138.171 24.5983 138.171 23.0088C138.171 21.4316 138.536 20.1854 139.266 19.27C140.002 18.3547 140.994 17.897 142.244 17.897C142.949 17.897 143.567 18.0671 144.099 18.4072C144.637 18.7474 145.03 19.1989 145.277 19.7617H145.333V14.6128H148.042V28H145.37V26.293H145.324C145.076 26.8558 144.677 27.3073 144.127 27.6475C143.576 27.9876 142.943 28.1577 142.225 28.1577ZM143.144 20.0679C142.463 20.0679 141.925 20.3338 141.529 20.8657C141.14 21.3976 140.945 22.1182 140.945 23.0273C140.945 23.9427 141.14 24.6632 141.529 25.189C141.925 25.7147 142.463 25.9775 143.144 25.9775C143.818 25.9775 144.353 25.7147 144.749 25.189C145.151 24.6571 145.352 23.9365 145.352 23.0273C145.352 22.1243 145.151 21.4069 144.749 20.875C144.353 20.3369 143.818 20.0679 143.144 20.0679ZM149.897 28V18.0547H152.606V28H149.897ZM152.282 16.5518C152.003 16.8239 151.66 16.96 151.252 16.96C150.844 16.96 150.5 16.8239 150.222 16.5518C149.944 16.2796 149.805 15.9487 149.805 15.5591C149.805 15.1632 149.944 14.8324 150.222 14.5664C150.5 14.2943 150.844 14.1582 151.252 14.1582C151.66 14.1582 152.003 14.2943 152.282 14.5664C152.56 14.8324 152.699 15.1632 152.699 15.5591C152.699 15.9487 152.56 16.2796 152.282 16.5518ZM154.416 28V18.0547H157.032V19.8267H157.087C157.36 19.1958 157.755 18.7134 158.275 18.3794C158.801 18.0392 159.441 17.8691 160.195 17.8691C161.296 17.8691 162.147 18.1969 162.747 18.8525C163.347 19.5081 163.646 20.4204 163.646 21.5894V28H160.938V22.1553C160.938 21.4997 160.783 20.9956 160.474 20.6431C160.164 20.2905 159.71 20.1143 159.11 20.1143C158.51 20.1143 158.028 20.3153 157.663 20.7173C157.304 21.1193 157.125 21.645 157.125 22.2944V28H154.416ZM169.955 25.8848C170.635 25.8848 171.174 25.6312 171.569 25.124C171.971 24.6107 172.172 23.9056 172.172 23.0088C172.172 22.112 171.971 21.3976 171.569 20.8657C171.167 20.3338 170.629 20.0679 169.955 20.0679C169.287 20.0679 168.755 20.3338 168.359 20.8657C167.97 21.3914 167.775 22.1058 167.775 23.0088C167.775 23.9118 167.97 24.6169 168.359 25.124C168.749 25.6312 169.281 25.8848 169.955 25.8848ZM169.909 31.748C168.616 31.748 167.552 31.4635 166.717 30.8945C165.889 30.3317 165.418 29.6019 165.307 28.7051H167.96C168.066 29.0514 168.301 29.3298 168.666 29.54C169.037 29.7565 169.476 29.8647 169.983 29.8647C170.669 29.8647 171.204 29.6885 171.588 29.3359C171.971 28.9896 172.163 28.5226 172.163 27.9351V26.1909H172.107C171.872 26.729 171.48 27.1619 170.929 27.4897C170.379 27.8114 169.748 27.9722 169.037 27.9722C167.812 27.9722 166.832 27.5269 166.096 26.6362C165.366 25.7456 165.001 24.5303 165.001 22.9902C165.001 21.4131 165.366 20.1699 166.096 19.2607C166.826 18.3516 167.821 17.897 169.083 17.897C169.788 17.897 170.41 18.0671 170.948 18.4072C171.486 18.7474 171.888 19.2082 172.154 19.7896H172.2V18.0547H174.872V27.8608C174.872 29.0422 174.417 29.9854 173.508 30.6904C172.605 31.3955 171.405 31.748 169.909 31.748Z" fill="#02073E"/>
<g clip-path="url(#clip0_385_2849)">
<path d="M20.2108 0.539082C16.792 -0.368573 13.1661 -0.132397 9.89698 1.21087C6.62785 2.55414 3.89883 4.92919 2.13441 7.96659C0.369993 11.004 -0.330903 14.5334 0.140747 18.0059C0.612398 21.4784 2.23015 24.6993 4.74237 27.1675L22.6287 9.46535C23.2975 8.8029 23.7784 7.97788 24.023 7.07319C24.2677 6.1685 24.2675 5.21601 24.0224 4.31142C23.7774 3.40684 23.2962 2.58202 22.6271 1.91984C21.958 1.25767 21.1247 0.781466 20.2108 0.539082Z" fill="url(#paint0_linear_385_2849)"/>
<path d="M6.78875 36.4596C10.2096 37.3702 13.8386 37.1355 17.1107 35.792C20.3827 34.4485 23.1142 32.0718 24.8796 29.0318C26.6451 25.9918 27.3455 22.4592 26.8717 18.9842C26.398 15.5092 24.7767 12.2868 22.2603 9.81885L4.37394 27.5333C3.70514 28.1956 3.22416 29.0204 2.97933 29.9249C2.7345 30.8294 2.73443 31.7817 2.97913 32.6862C3.22383 33.5908 3.70469 34.4156 4.3734 35.078C5.0421 35.7403 5.87512 36.2168 6.78875 36.4596Z" fill="url(#paint1_linear_385_2849)"/>
<path style="mix-blend-mode:multiply" d="M22.2603 9.81885L4.37394 27.5333C3.70514 28.1956 3.22416 29.0204 2.97933 29.9249C2.7345 30.8294 2.73443 31.7817 2.97913 32.6862C3.22383 33.5908 3.70469 34.4156 4.3734 35.078C5.0421 35.7403 5.87512 36.2168 6.78875 36.4596C8.70142 36.9645 10.6917 37.1164 12.6599 36.9076C4.81723 29.4388 22.2603 9.81885 22.2603 9.81885Z" fill="url(#paint2_linear_385_2849)"/>
<g style="mix-blend-mode:multiply">
<path style="mix-blend-mode:multiply" d="M6.46041 36.362C3.92161 28.5802 19.1699 12.9094 21.8606 10.2275L4.37419 27.5339C3.72588 28.1758 3.25368 28.9707 3.00226 29.8436C2.75084 30.7165 2.7285 31.6384 2.93736 32.5222C3.14621 33.406 3.57936 34.2224 4.19584 34.8943C4.81231 35.5662 5.59174 36.0714 6.46041 36.362Z" fill="url(#paint3_linear_385_2849)"/>
<path style="mix-blend-mode:multiply" d="M22.2017 9.88984C22.2203 9.86941 22.2399 9.84995 22.2606 9.83154L22.2017 9.88984Z" fill="url(#paint4_linear_385_2849)"/>
</g>
<path style="mix-blend-mode:screen" d="M23.9405 7.36426L4.72119 27.1561L22.6292 9.46618C23.2274 8.87751 23.6767 8.15732 23.9405 7.36426Z" fill="url(#paint5_radial_385_2849)"/>
</g>
<defs>
<linearGradient id="paint0_linear_385_2849" x1="16.4103" y1="-16.6936" x2="10.5878" y2="20.6652" gradientUnits="userSpaceOnUse">
<stop stop-color="#0096D9"/>
<stop offset="1" stop-color="#00C198"/>
</linearGradient>
<linearGradient id="paint1_linear_385_2849" x1="9.13537" y1="13.6177" x2="18.5045" y2="32.4244" gradientUnits="userSpaceOnUse">
<stop stop-color="#002DD9"/>
<stop offset="1" stop-color="#00B2AB"/>
</linearGradient>
<linearGradient id="paint2_linear_385_2849" x1="23.8071" y1="-3.42481" x2="6.08252" y2="38.1709" gradientUnits="userSpaceOnUse">
<stop stop-color="#3482C0"/>
<stop offset="0.45" stop-color="#96BEDE"/>
<stop offset="0.83" stop-color="#E1EDF6"/>
<stop offset="1" stop-color="white"/>
</linearGradient>
<linearGradient id="paint3_linear_385_2849" x1="1361.37" y1="132.275" x2="-132.261" y2="2238.51" gradientUnits="userSpaceOnUse">
<stop stop-color="#3482C0"/>
<stop offset="0.45" stop-color="#96BEDE"/>
<stop offset="0.83" stop-color="#E1EDF6"/>
<stop offset="1" stop-color="white"/>
</linearGradient>
<linearGradient id="paint4_linear_385_2849" x1="25.6735" y1="3.26808" x2="10.5954" y2="32.7125" gradientUnits="userSpaceOnUse">
<stop stop-color="#569FA1"/>
<stop offset="0.36" stop-color="#97C4C5"/>
<stop offset="0.8" stop-color="#E2EEEF"/>
<stop offset="1" stop-color="white"/>
</linearGradient>
<radialGradient id="paint5_radial_385_2849" cx="0" cy="0" r="1" gradientUnits="userSpaceOnUse" gradientTransform="translate(21.5939 32.3818) scale(27.8184 27.5367)">
<stop stop-color="#FFFF00"/>
<stop offset="1"/>
</radialGradient>
<clipPath id="clip0_385_2849">
<rect width="27" height="37" fill="white"/>
</clipPath>
</defs>
</svg>
