<svg width="82" height="6" viewBox="0 0 82 6" fill="none" xmlns="http://www.w3.org/2000/svg">
<path d="M70.2642 0.151903C70.3571 0.296791 70.4403 0.446688 70.5133 0.600778C70.5503 0.727121 70.5747 0.856294 70.5861 0.986688L70.29 1.25587C66.8705 1.11631 63.4198 1.10857 59.9706 1.15018C56.5214 1.19179 53.0775 1.23193 49.6328 1.44146C49.816 1.44919 49.9992 1.4584 50.1824 1.46392C53.1265 1.55193 56.0711 1.63294 59.0148 1.73015C60.1968 1.76918 61.3764 1.84762 62.5576 1.90211C65.247 2.02695 67.9384 2.13557 70.6266 2.2744C72.762 2.38487 74.895 2.52517 77.028 2.66178C78.3072 2.7439 79.5848 2.84222 80.8624 2.93796C81.1372 2.95858 81.4092 2.99798 81.7061 3.03149C81.7496 3.15548 81.8161 3.2717 81.9026 3.37505C82.0665 3.51866 81.9878 3.65749 81.9496 3.79779C81.9064 3.92053 81.8539 4.04037 81.7925 4.15644C81.5651 4.14761 81.3662 4.14503 81.169 4.1314C79.8407 4.03713 78.5128 3.94201 77.1851 3.84602C77.0111 3.81987 76.834 3.81541 76.6587 3.83277C76.0611 3.90878 75.4552 3.91423 74.856 3.84897C71.9372 3.72855 69.0147 3.6932 66.0919 3.67258C63.2454 3.65306 60.3989 3.60667 57.552 3.60998C54.2024 3.61403 50.8529 3.65454 47.5034 3.68768C45.4886 3.70756 43.4733 3.73261 41.4588 3.77569C39.8482 3.80994 38.2383 3.86701 36.6288 3.92777C33.9624 4.02818 31.2965 4.13496 28.6309 4.24813C26.7952 4.32546 24.9591 4.40537 23.1267 4.50185C21.6196 4.58102 20.1134 4.68596 18.6092 4.77839C17.6803 4.8351 16.7507 4.88076 15.823 4.94557C14.0675 5.06831 12.3132 5.19633 10.5598 5.32963C9.4349 5.41506 8.30595 5.50344 7.18502 5.6117C6.36174 5.66528 5.54495 5.78305 4.74349 5.96373C4.33369 6.06905 4.11512 5.94569 4.10989 5.62864C4.10989 5.53548 4.12798 5.44232 4.13039 5.34915C4.13039 5.27551 4.12276 5.20186 4.11633 5.09544C3.90219 5.11017 3.71094 5.12527 3.5197 5.13668C3.36935 5.14989 3.21835 5.15603 3.06731 5.15509C2.60046 5.13926 2.48034 5.05236 2.38995 4.68744C2.37307 4.61858 2.35458 4.54935 2.33329 4.4665C1.97432 4.45555 1.61516 4.48173 1.26259 4.54456C1.06532 4.57439 0.87086 4.61821 0.672387 4.64067C0.33852 4.68007 0.126797 4.57696 0.0673356 4.34019C0.0377556 4.18864 0.0172288 4.03571 0.00585938 3.88211C0.302985 3.72881 0.631076 3.63258 0.970107 3.59931C2.24505 3.3551 3.53471 3.18061 4.83227 3.07678C6.93565 2.91083 9.03997 2.75237 11.1452 2.60139C12.6738 2.48969 14.2032 2.3834 15.7334 2.2825C17.1126 2.19081 18.4931 2.11127 19.8716 2.01848C21.7775 1.89033 23.6823 1.75445 25.5875 1.62226C26.8916 1.53143 28.1958 1.44047 29.4999 1.3494C31.9322 1.17854 34.3637 1.00215 36.7968 0.837554C37.7743 0.771272 38.7554 0.730765 39.7345 0.67553C40.9398 0.607775 42.1451 0.524923 43.3504 0.470056C45.3616 0.378366 47.374 0.305087 49.3861 0.220761C53.6641 0.0429045 57.9437 -0.000176695 62.2289 0.00203271C63.8914 0.00203271 65.5537 0.0151644 67.2156 0.0414317C68.214 0.0568975 69.2184 0.112502 70.2642 0.151903ZM19.0058 3.18762C19.7197 3.25096 26.9093 2.99945 27.8338 2.9074C27.8699 2.90371 27.9001 2.86689 27.933 2.84516C27.925 2.69087 27.8157 2.5966 27.6092 2.59881C27.2572 2.60249 26.9045 2.61391 26.5541 2.63858C25.3014 2.72659 24.0499 2.8227 22.7976 2.91402C21.5337 3.00608 20.2697 3.09728 19.0058 3.18762Z" fill="#34998B"/>
</svg>
