<svg width="26" height="26" viewBox="0 0 26 26" fill="none" xmlns="http://www.w3.org/2000/svg">
<path d="M24.3761 13.2513C24.3761 12.316 24.2987 11.6335 24.1311 10.9258H13.2333V15.1471H19.6301C19.5011 16.1962 18.8047 17.776 17.2571 18.8377L17.2354 18.979L20.6811 21.5949L20.9198 21.6183C23.1122 19.634 24.3761 16.7144 24.3761 13.2513Z" fill="#4285F4"/>
<path d="M13.2326 24.3754C16.3664 24.3754 18.9974 23.3642 20.919 21.6201L17.2563 18.8394C16.2762 19.5093 14.9607 19.9769 13.2326 19.9769C10.1632 19.9769 7.55803 17.9927 6.62938 15.25L6.49326 15.2613L2.9104 17.9787L2.86354 18.1064C4.77224 21.8222 8.69287 24.3754 13.2326 24.3754Z" fill="#34A853"/>
<path d="M6.63006 15.2511C6.38502 14.5433 6.24321 13.7849 6.24321 13.0013C6.24321 12.2177 6.38502 11.4594 6.61717 10.7516L6.61067 10.6009L2.9829 7.83984L2.86421 7.89517C2.07754 9.43714 1.62614 11.1687 1.62614 13.0013C1.62614 14.834 2.07754 16.5654 2.86421 18.1074L6.63006 15.2511Z" fill="#FBBC05"/>
<path d="M13.2326 6.0233C15.4122 6.0233 16.8824 6.94594 17.7207 7.71696L20.9965 4.5825C18.9846 2.74987 16.3665 1.625 13.2326 1.625C8.69291 1.625 4.77225 4.17804 2.86354 7.89384L6.61651 10.7503C7.55806 8.00763 10.1632 6.0233 13.2326 6.0233Z" fill="#EB4335"/>
</svg>
