<svg xmlns="http://www.w3.org/2000/svg" fill="none" viewBox="24 16 90 90">
<g filter="url(#filter0_d_385_2191)">
<circle cx="69" cy="61" r="45" fill="white"/>
</g>
<path d="M75.9578 73.7589C76.6078 71.5922 77.9078 69.6422 79.6412 68.1255C82.8912 65.4171 84.9496 61.3005 84.9496 56.7505C84.9496 48.3005 77.9079 41.3672 69.2412 41.8005C61.5495 42.1255 55.2661 48.6255 55.0495 56.3171C54.9411 61.0839 56.9995 65.3089 60.3579 68.1255C62.1995 69.6421 63.4995 71.5921 64.1495 73.7589H75.9578Z" fill="#FFCD1D"/>
<path d="M68.5909 73.9754H69.5659L65.2325 57.8338C65.3409 57.8338 65.4491 57.8338 65.5575 57.8338C66.0991 57.8338 66.6409 57.6172 67.0741 57.1838C67.2908 56.9672 67.5075 56.8588 67.8325 56.8588C68.1575 56.8588 68.3741 56.9672 68.5909 57.1838C69.3492 58.0505 70.6492 58.0505 71.4075 57.1838C71.6241 56.9672 71.8409 56.8588 72.1659 56.8588C72.3825 56.8588 72.7075 56.9672 72.9242 57.1838C73.3576 57.6172 73.7909 57.8338 74.4409 57.8338C74.5492 57.8338 74.6575 57.8338 74.7659 57.8338L70.5409 73.9754H71.5159L75.9575 57.0755C75.9575 56.8588 75.9575 56.6421 75.7409 56.5338C75.5242 56.4255 75.3075 56.5338 75.1992 56.6422C74.9826 56.8588 74.7659 56.9672 74.5492 56.9672C74.2242 56.9672 74.0076 56.8588 73.6826 56.6422C73.2492 56.2088 72.816 55.9922 72.2742 55.9922C71.7325 55.9922 71.2992 56.2088 70.8659 56.6422C70.4325 57.0756 69.7825 57.0756 69.3492 56.6422C69.0242 56.2088 68.4826 55.9922 67.9409 55.9922C67.3992 55.9922 66.8575 56.2088 66.5325 56.6422C66.3159 56.8588 65.9909 56.9672 65.6659 56.9672C65.4492 56.9672 65.1242 56.8588 65.0159 56.6422C64.9075 56.5338 64.6909 56.4256 64.4742 56.5338C64.2576 56.6422 64.1492 56.8588 64.2576 57.0755L68.5909 73.9754Z" fill="white"/>
<path d="M66.6411 83.7256C67.1828 85.0256 68.4828 86.0006 69.9995 86.0006C71.5161 86.0006 72.8161 85.0256 73.3579 83.7256H66.6411Z" fill="#344A5E"/>
<path d="M74.0073 83.8338H66.0989C65.0156 83.8338 64.1489 82.9671 64.1489 81.8838V73.6504H75.9573V81.8838C75.9573 82.967 75.0906 83.8338 74.0073 83.8338Z" fill="#344A5E"/>
<path d="M75.8494 77.7671H64.1494C63.4994 77.7671 62.9578 77.2254 62.9578 76.5754C62.9578 75.9254 63.4994 75.3838 64.1494 75.3838H75.8494C76.4994 75.3838 77.041 75.9254 77.041 76.5754C77.041 77.2254 76.4994 77.7671 75.8494 77.7671Z" fill="#415A6B"/>
<path d="M75.8486 81.559H64.1487C63.4987 81.559 62.957 81.0174 62.957 80.3674C62.957 79.7174 63.4987 79.1758 64.1487 79.1758H75.8486C76.4986 79.1758 77.0403 79.7174 77.0403 80.3674C77.0403 81.0173 76.4986 81.559 75.8486 81.559Z" fill="#415A6B"/>
<path d="M69.9982 34C69.4565 34 68.9148 34.4334 68.9148 35.0834V38.7667C68.9148 39.3084 69.3482 39.8501 69.9982 39.8501C70.6482 39.8501 71.0815 39.4167 71.0815 38.7667V35.0834C71.0815 34.4334 70.5398 34 69.9982 34Z" fill="#FFD15C"/>
<path d="M55.4837 40.6082C55.0503 40.1749 54.4003 40.1749 53.9671 40.6082C53.5338 41.0416 53.5337 41.6916 53.9671 42.1249L56.5671 44.7249C57.0004 45.1582 57.6504 45.1582 58.0837 44.7249C58.517 44.2915 58.5171 43.6415 58.0837 43.2082L55.4837 40.6082Z" fill="#FFD15C"/>
<path d="M52.1242 55.5586H48.4408C47.8992 55.5586 47.3574 55.992 47.3574 56.642C47.3574 57.1836 47.7908 57.7253 48.4408 57.7253H52.1242C52.6658 57.7253 53.2075 57.292 53.2075 56.642C53.2075 56.1002 52.6658 55.5586 52.1242 55.5586Z" fill="#FFD15C"/>
<path d="M56.5654 68.5584L53.9654 71.1584C53.532 71.5918 53.532 72.2417 53.9654 72.675C54.3988 73.1083 55.0488 73.1084 55.482 72.675L58.082 70.075C58.5154 69.6417 58.5154 68.9917 58.082 68.5584C57.6487 68.1251 56.9988 68.125 56.5654 68.5584Z" fill="#FFD15C"/>
<path d="M83.4333 68.5584C82.9999 68.1251 82.3499 68.1251 81.9166 68.5584C81.4832 68.9918 81.4832 69.6418 81.9166 70.0751L84.5166 72.675C84.9499 73.1084 85.5999 73.1084 86.0332 72.675C86.4665 72.2417 86.4666 71.5917 86.0332 71.1584L83.4333 68.5584Z" fill="#FFD15C"/>
<path d="M91.5565 55.5586H87.8732C87.3315 55.5586 86.7898 55.992 86.7898 56.642C86.7898 57.1836 87.2232 57.7253 87.8732 57.7253H91.5565C92.0982 57.7253 92.6399 57.292 92.6399 56.642C92.6398 56.1002 92.2065 55.5586 91.5565 55.5586Z" fill="#FFD15C"/>
<path d="M84.5166 40.6082L81.9166 43.2082C81.4832 43.6416 81.4832 44.2916 81.9166 44.7248C82.3499 45.1582 82.9999 45.1582 83.4332 44.7248L86.0332 42.1248C86.4666 41.6915 86.4666 41.0415 86.0332 40.6082C85.5998 40.1749 84.9499 40.1748 84.5166 40.6082Z" fill="#FFD15C"/>
<defs>
<filter id="filter0_d_385_2191" x="0" y="0" width="138" height="138" filterUnits="userSpaceOnUse" color-interpolation-filters="sRGB">
<feFlood flood-opacity="0" result="BackgroundImageFix"/>
<feColorMatrix in="SourceAlpha" type="matrix" values="0 0 0 0 0 0 0 0 0 0 0 0 0 0 0 0 0 0 127 0" result="hardAlpha"/>
<feOffset dy="8"/>
<feGaussianBlur stdDeviation="12"/>
<feColorMatrix type="matrix" values="0 0 0 0 0.209553 0 0 0 0 0.374091 0 0 0 0 0.620898 0 0 0 0.1 0"/>
<feBlend mode="normal" in2="BackgroundImageFix" result="effect1_dropShadow_385_2191"/>
<feBlend mode="normal" in="SourceGraphic" in2="effect1_dropShadow_385_2191" result="shape"/>
</filter>
</defs>
</svg>