<svg width="59" height="54" viewBox="0 0 59 54" fill="none" xmlns="http://www.w3.org/2000/svg">
<g clip-path="url(#clip0_385_2166)">
<mask id="mask0_385_2166" style="mask-type:luminance" maskUnits="userSpaceOnUse" x="0" y="0" width="59" height="54">
<path d="M59 0H0V54H59V0Z" fill="white"/>
</mask>
<g mask="url(#mask0_385_2166)">
<path d="M11.0403 54.1447C11.0083 53.5113 11.5121 53.4613 11.9398 53.4358C14.718 53.2712 17.4965 53.0675 20.2776 53.0078C25.0836 52.9045 29.8914 52.8582 34.6984 52.8649C37.1047 52.8682 39.5116 53.0239 41.9165 53.1466C42.8077 53.192 43.7023 53.295 44.578 53.4632C44.9382 53.5324 45.2529 53.8428 45.5961 54.0941C44.5559 54.1447 43.5077 54.1447 42.3806 54.0884C42.2067 53.9748 42.1145 53.8721 42.0169 53.8666C40.1534 53.7604 38.29 53.6065 36.4251 53.5815C33.0294 53.5361 29.6327 53.5498 26.2366 53.5739C22.7989 53.5981 19.3609 53.6465 15.9241 53.7311C15.3636 53.7448 14.8087 54.0007 14.2513 54.1447C13.2032 54.1447 12.1551 54.1447 11.0403 54.1447Z" fill="#FAFAFA"/>
<path d="M14.3179 54.1438C14.8086 53.9998 15.3634 53.7441 15.924 53.7303C19.3607 53.6456 22.7987 53.5973 26.2365 53.573C29.6326 53.5491 33.0293 53.5352 36.4249 53.5808C38.2898 53.6056 40.1532 53.7596 42.0167 53.8658C42.1144 53.8713 42.2065 53.9741 42.3136 54.0876C33.0122 54.1438 23.6984 54.1438 14.3179 54.1438Z" fill="#F5F5F5"/>
<path d="M34.5759 30.1982H42.2268L42.3739 46.9338L34.5759 51.471V30.1982Z" fill="#34998B"/>
<path d="M47.74 35.8516H54.586V40.0169L41.197 47.6036L42.1921 38.8268L47.74 35.8516Z" fill="#34998B"/>
<path d="M47.5237 6.61132L54.586 2.5293V36.0004H47.5237V6.61132Z" fill="#34998B"/>
<path d="M3.67822 2.5293L10.7406 6.69459V39.8681H3.67822V2.5293Z" fill="#34998B"/>
<path d="M10.7406 35.8516L16.4787 39.1243L23.6882 51.4714L3.67822 39.8681L10.7406 35.8516Z" fill="#34998B"/>
<path d="M16.3315 30.3477H23.6882V51.4716L16.3315 46.6341V30.3477Z" fill="#34998B"/>
<path d="M16.3315 24.9178L29.2792 17.2568V25.5873L21.5547 30.422L16.3315 31.017V24.9178Z" fill="#34998B"/>
<path d="M29.2793 25.5874V17.2568L42.2269 24.8433V30.3477L36.8259 30.2734L29.2793 25.5874Z" fill="#34998B"/>
<path d="M28.9849 30.3477H27.8079V31.5377H28.9849V30.3477Z" fill="#34998B"/>
<path d="M30.6033 30.3477H29.4263V31.5377H30.6033V30.3477Z" fill="#34998B"/>
<path d="M30.6033 31.9834H29.4263V33.1735H30.6033V31.9834Z" fill="#34998B"/>
<path d="M28.9849 31.9834H27.8079V33.1735H28.9849V31.9834Z" fill="#34998B"/>
</g>
</g>
<defs>
<clipPath id="clip0_385_2166">
<rect width="59" height="54" fill="white"/>
</clipPath>
</defs>
</svg>
