<svg width="88" height="45" viewBox="0 0 88 45" fill="none" xmlns="http://www.w3.org/2000/svg">
<path d="M4.98 4.22C4.39333 4.95333 4.1 5.95333 4.1 7.22C4.1 8.48667 4.39333 9.49333 4.98 10.24C5.56667 10.9733 6.36 11.34 7.36 11.34C8.36 11.34 9.15333 10.9733 9.74 10.24C10.3267 9.49333 10.62 8.48667 10.62 7.22C10.62 5.95333 10.3267 4.95333 9.74 4.22C9.15333 3.47333 8.36 3.1 7.36 3.1C6.36 3.1 5.56667 3.47333 4.98 4.22ZM7.36 0.299999C9.36 0.299999 10.9533 0.933332 12.14 2.2C13.3267 3.46667 13.92 5.14 13.92 7.22C13.92 9.28667 13.32 10.96 12.12 12.24C10.9333 13.5067 9.34 14.14 7.34 14.14C5.35333 14.14 3.76667 13.5067 2.58 12.24C1.39333 10.9733 0.8 9.30667 0.8 7.24C0.8 5.16 1.39333 3.48667 2.58 2.22C3.78 0.939999 5.37333 0.299999 7.36 0.299999ZM26.1466 14H23.0466V8.62H18.1066V14H15.0266V0.52H18.1066V6H23.0466V0.52H26.1466V14ZM30.8175 14H27.7375V0.52H31.1175L34.2575 6.1C35.1642 7.71333 35.8108 9.08 36.1975 10.2C36.0642 9.21333 35.9975 7.84667 35.9975 6.1V0.52H39.0775V14H35.6975L32.4775 8.42C31.6375 6.99333 31.0375 5.76667 30.6775 4.74L30.5175 4.24C30.7175 5.44 30.8175 6.83333 30.8175 8.42V14ZM51.5428 8.78C51.5428 10.54 51.0495 11.8867 50.0628 12.82C49.0761 13.74 47.7495 14.2 46.0828 14.2C44.4161 14.2 43.0828 13.74 42.0828 12.82C41.0828 11.9 40.5828 10.6 40.5828 8.92V0.52H43.6628V8.9C43.6628 10.5667 44.4628 11.4 46.0628 11.4C47.6628 11.4 48.4628 10.5333 48.4628 8.8V0.52H51.5428V8.78ZM56.1222 14H53.0422V0.52H56.4222L59.5622 6.1C60.4689 7.71333 61.1155 9.08 61.5022 10.2C61.3689 9.21333 61.3022 7.84667 61.3022 6.1V0.52H64.3822V14H61.0022L57.7822 8.42C56.9422 6.99333 56.3422 5.76667 55.9822 4.74L55.8222 4.24C56.0222 5.44 56.1222 6.83333 56.1222 8.42V14ZM77.6075 12.76C76.3275 13.6933 74.6608 14.16 72.6075 14.16C70.5542 14.16 68.8542 13.54 67.5075 12.3C66.1608 11.06 65.4875 9.38 65.4875 7.26C65.4875 5.14 66.1875 3.44667 67.5875 2.18C69.0008 0.913333 70.7875 0.279999 72.9475 0.279999C74.4675 0.279999 75.7808 0.559999 76.8875 1.12V4.2C75.6075 3.46667 74.3142 3.1 73.0075 3.1C71.7008 3.1 70.6742 3.48 69.9275 4.24C69.1808 4.98667 68.8075 5.99333 68.8075 7.26C68.8075 8.51333 69.1742 9.51333 69.9075 10.26C70.6408 11.0067 71.6408 11.38 72.9075 11.38C73.4808 11.38 74.0475 11.2933 74.6075 11.12V8.58H72.4275V5.96H77.6075V12.76ZM87.4886 10.08C87.4886 11.2933 87.0419 12.28 86.1486 13.04C85.2553 13.7867 84.0419 14.16 82.5086 14.16C80.9753 14.16 79.7086 13.88 78.7086 13.32V10.22C79.9219 11.1 81.2153 11.54 82.5886 11.54C83.0553 11.54 83.4419 11.42 83.7486 11.18C84.0553 10.9267 84.2086 10.6 84.2086 10.2C84.2086 9.90667 84.1353 9.68667 83.9886 9.54C83.8419 9.39333 83.7153 9.28667 83.6086 9.22C83.5153 9.14 83.3686 9.05333 83.1686 8.96C82.9819 8.85333 82.8219 8.76667 82.6886 8.7C82.2753 8.5 81.8686 8.31333 81.4686 8.14C80.6019 7.74 79.9019 7.24667 79.3686 6.66C78.8486 6.07333 78.5886 5.24667 78.5886 4.18C78.5886 3.11333 79.0153 2.22667 79.8686 1.52C80.7219 0.799999 81.8619 0.439999 83.2886 0.439999C84.7153 0.439999 85.9153 0.666666 86.8886 1.12V4C85.8086 3.37333 84.6886 3.06 83.5286 3.06C83.0086 3.06 82.6086 3.16667 82.3286 3.38C82.0619 3.59333 81.9286 3.86667 81.9286 4.2C81.9286 4.53333 82.0953 4.83333 82.4286 5.1C82.7619 5.35333 83.1953 5.6 83.7286 5.84C84.2753 6.08 84.6819 6.27333 84.9486 6.42C85.2286 6.55333 85.5419 6.74667 85.8886 7C86.2486 7.24 86.5286 7.49333 86.7286 7.76C87.2353 8.42667 87.4886 9.2 87.4886 10.08ZM12.92 42.76C11.64 43.6933 9.97333 44.16 7.92 44.16C5.86667 44.16 4.16667 43.54 2.82 42.3C1.47333 41.06 0.8 39.38 0.8 37.26C0.8 35.14 1.5 33.4467 2.9 32.18C4.31333 30.9133 6.1 30.28 8.26 30.28C9.78 30.28 11.0933 30.56 12.2 31.12V34.2C10.92 33.4667 9.62667 33.1 8.32 33.1C7.01333 33.1 5.98667 33.48 5.24 34.24C4.49333 34.9867 4.12 35.9933 4.12 37.26C4.12 38.5133 4.48667 39.5133 5.22 40.26C5.95333 41.0067 6.95333 41.38 8.22 41.38C8.79333 41.38 9.36 41.2933 9.92 41.12V38.58H7.74V35.96H12.92V42.76ZM25.2811 38.78C25.2811 40.54 24.7878 41.8867 23.8011 42.82C22.8144 43.74 21.4878 44.2 19.8211 44.2C18.1544 44.2 16.8211 43.74 15.8211 42.82C14.8211 41.9 14.3211 40.6 14.3211 38.92V30.52H17.4011V38.9C17.4011 40.5667 18.2011 41.4 19.8011 41.4C21.4011 41.4 22.2011 40.5333 22.2011 38.8V30.52H25.2811V38.78ZM29.8605 44H26.7805V30.52H31.4405C32.9471 30.52 34.1538 30.92 35.0605 31.72C35.9805 32.52 36.4405 33.56 36.4405 34.84C36.4405 36.76 35.6205 38.0867 33.9805 38.82L37.4005 44H33.7205L30.8005 39.32H29.8605V44ZM31.3805 33.02H29.8605V36.82H31.3205C32.6538 36.82 33.3205 36.1667 33.3205 34.86C33.3205 34.2867 33.1471 33.84 32.8005 33.52C32.4538 33.1867 31.9805 33.02 31.3805 33.02ZM48.9256 38.78C48.9256 40.54 48.4323 41.8867 47.4456 42.82C46.459 43.74 45.1323 44.2 43.4656 44.2C41.799 44.2 40.4656 43.74 39.4656 42.82C38.4656 41.9 37.9656 40.6 37.9656 38.92V30.52H41.0456V38.9C41.0456 40.5667 41.8456 41.4 43.4456 41.4C45.0456 41.4 45.8456 40.5333 45.8456 38.8V30.52H48.9256V38.78Z" fill="#34998B"/>
</svg>
