<svg width="44" height="43" viewBox="0 0 44 43" fill="none" xmlns="http://www.w3.org/2000/svg">
<rect width="43.6486" height="42.5" rx="19" fill="#E7FC41"/>
<path fill-rule="evenodd" clip-rule="evenodd" d="M13.0167 24.5031C14.1342 23.3856 15.6498 22.7578 17.2301 22.7578H26.4193C27.9996 22.7578 29.5152 23.3856 30.6327 24.5031C31.7501 25.6205 32.3779 27.1361 32.3779 28.7164V31.0137C32.3779 31.7671 31.7672 32.3777 31.0139 32.3777C30.2606 32.3777 29.6499 31.7671 29.6499 31.0137V28.7164C29.6499 27.8596 29.3095 27.0379 28.7036 26.4321C28.0978 25.8262 27.2761 25.4859 26.4193 25.4859H17.2301C16.3733 25.4859 15.5516 25.8262 14.9457 26.4321C14.3399 27.0379 13.9995 27.8596 13.9995 28.7164V31.0137C13.9995 31.7671 13.3888 32.3777 12.6355 32.3777C11.8822 32.3777 11.2715 31.7671 11.2715 31.0137V28.7164C11.2715 27.1361 11.8993 25.6205 13.0167 24.5031Z" fill="black"/>
<path fill-rule="evenodd" clip-rule="evenodd" d="M21.8238 11.7017C20.0397 11.7017 18.5933 13.1481 18.5933 14.9322C18.5933 16.7164 20.0397 18.1628 21.8238 18.1628C23.608 18.1628 25.0544 16.7164 25.0544 14.9322C25.0544 13.1481 23.608 11.7017 21.8238 11.7017ZM15.8652 14.9322C15.8652 11.6414 18.533 8.97363 21.8238 8.97363C25.1147 8.97363 27.7825 11.6414 27.7825 14.9322C27.7825 18.2231 25.1147 20.8909 21.8238 20.8909C18.533 20.8909 15.8652 18.2231 15.8652 14.9322Z" fill="black"/>
</svg>
