<svg width="352" height="263" viewBox="0 0 352 263" fill="none" xmlns="http://www.w3.org/2000/svg">
<g filter="url(#filter0_ddd_2935_512)">
<path d="M149.202 58.251V60H142.408V58.251H149.202ZM143.032 47.2031V60H140.826V47.2031H143.032ZM148.314 52.5469V54.2695H142.408V52.5469H148.314ZM149.158 47.2031V48.9609H142.408V47.2031H149.158ZM152.41 50.4902L154.221 53.6455L156.066 50.4902H158.396L155.513 55.1572L158.51 60H156.181L154.247 56.7129L152.313 60H149.976L152.964 55.1572L150.09 50.4902H152.41ZM163.555 58.4883C163.9 58.4883 164.211 58.4209 164.486 58.2861C164.768 58.1455 164.993 57.9521 165.163 57.7061C165.339 57.46 165.436 57.1758 165.453 56.8535H167.448C167.437 57.4688 167.255 58.0283 166.903 58.5322C166.552 59.0361 166.086 59.4375 165.506 59.7363C164.926 60.0293 164.284 60.1758 163.581 60.1758C162.854 60.1758 162.222 60.0527 161.683 59.8066C161.144 59.5547 160.695 59.209 160.338 58.7695C159.98 58.3301 159.711 57.8232 159.529 57.249C159.354 56.6748 159.266 56.0596 159.266 55.4033V55.0957C159.266 54.4395 159.354 53.8242 159.529 53.25C159.711 52.6699 159.98 52.1602 160.338 51.7207C160.695 51.2812 161.144 50.9385 161.683 50.6924C162.222 50.4404 162.852 50.3145 163.572 50.3145C164.334 50.3145 165.002 50.4668 165.576 50.7715C166.15 51.0703 166.602 51.4893 166.93 52.0283C167.264 52.5615 167.437 53.1826 167.448 53.8916H165.453C165.436 53.54 165.348 53.2236 165.189 52.9424C165.037 52.6553 164.82 52.4268 164.539 52.2568C164.264 52.0869 163.933 52.002 163.546 52.002C163.118 52.002 162.764 52.0898 162.482 52.2656C162.201 52.4355 161.981 52.6699 161.823 52.9688C161.665 53.2617 161.551 53.5928 161.48 53.9619C161.416 54.3252 161.384 54.7031 161.384 55.0957V55.4033C161.384 55.7959 161.416 56.1768 161.48 56.5459C161.545 56.915 161.656 57.2461 161.814 57.5391C161.979 57.8262 162.201 58.0576 162.482 58.2334C162.764 58.4033 163.121 58.4883 163.555 58.4883ZM173.267 60.1758C172.563 60.1758 171.928 60.0615 171.359 59.833C170.797 59.5986 170.316 59.2734 169.918 58.8574C169.525 58.4414 169.224 57.9521 169.013 57.3896C168.802 56.8271 168.696 56.2207 168.696 55.5703V55.2188C168.696 54.4746 168.805 53.8008 169.021 53.1973C169.238 52.5938 169.54 52.0781 169.927 51.6504C170.313 51.2168 170.771 50.8857 171.298 50.6572C171.825 50.4287 172.396 50.3145 173.012 50.3145C173.691 50.3145 174.286 50.4287 174.796 50.6572C175.306 50.8857 175.728 51.208 176.062 51.624C176.401 52.0342 176.653 52.5234 176.817 53.0918C176.987 53.6602 177.072 54.2871 177.072 54.9727V55.8779H169.725V54.3574H174.98V54.1904C174.969 53.8096 174.893 53.4521 174.752 53.1182C174.617 52.7842 174.409 52.5146 174.128 52.3096C173.847 52.1045 173.472 52.002 173.003 52.002C172.651 52.002 172.338 52.0781 172.062 52.2305C171.793 52.377 171.567 52.5908 171.386 52.8721C171.204 53.1533 171.063 53.4932 170.964 53.8916C170.87 54.2842 170.823 54.7266 170.823 55.2188V55.5703C170.823 55.9863 170.879 56.373 170.99 56.7305C171.107 57.082 171.277 57.3896 171.5 57.6533C171.723 57.917 171.992 58.125 172.309 58.2773C172.625 58.4238 172.985 58.4971 173.39 58.4971C173.899 58.4971 174.354 58.3945 174.752 58.1895C175.15 57.9844 175.496 57.6943 175.789 57.3193L176.905 58.4004C176.7 58.6992 176.434 58.9863 176.105 59.2617C175.777 59.5312 175.376 59.751 174.901 59.9209C174.433 60.0908 173.888 60.1758 173.267 60.1758ZM180.992 46.5V60H178.865V46.5H180.992ZM185.58 46.5V60H183.453V46.5H185.58ZM192.093 60.1758C191.39 60.1758 190.754 60.0615 190.186 59.833C189.623 59.5986 189.143 59.2734 188.744 58.8574C188.352 58.4414 188.05 57.9521 187.839 57.3896C187.628 56.8271 187.522 56.2207 187.522 55.5703V55.2188C187.522 54.4746 187.631 53.8008 187.848 53.1973C188.064 52.5938 188.366 52.0781 188.753 51.6504C189.14 51.2168 189.597 50.8857 190.124 50.6572C190.651 50.4287 191.223 50.3145 191.838 50.3145C192.518 50.3145 193.112 50.4287 193.622 50.6572C194.132 50.8857 194.554 51.208 194.888 51.624C195.228 52.0342 195.479 52.5234 195.644 53.0918C195.813 53.6602 195.898 54.2871 195.898 54.9727V55.8779H188.551V54.3574H193.807V54.1904C193.795 53.8096 193.719 53.4521 193.578 53.1182C193.443 52.7842 193.235 52.5146 192.954 52.3096C192.673 52.1045 192.298 52.002 191.829 52.002C191.478 52.002 191.164 52.0781 190.889 52.2305C190.619 52.377 190.394 52.5908 190.212 52.8721C190.03 53.1533 189.89 53.4932 189.79 53.8916C189.696 54.2842 189.649 54.7266 189.649 55.2188V55.5703C189.649 55.9863 189.705 56.373 189.816 56.7305C189.934 57.082 190.104 57.3896 190.326 57.6533C190.549 57.917 190.818 58.125 191.135 58.2773C191.451 58.4238 191.812 58.4971 192.216 58.4971C192.726 58.4971 193.18 58.3945 193.578 58.1895C193.977 57.9844 194.322 57.6943 194.615 57.3193L195.731 58.4004C195.526 58.6992 195.26 58.9863 194.932 59.2617C194.604 59.5312 194.202 59.751 193.728 59.9209C193.259 60.0908 192.714 60.1758 192.093 60.1758ZM199.651 52.5205V60H197.533V50.4902H199.528L199.651 52.5205ZM199.273 54.8936L198.588 54.8848C198.594 54.2109 198.688 53.5928 198.869 53.0303C199.057 52.4678 199.314 51.9844 199.643 51.5801C199.977 51.1758 200.375 50.8652 200.838 50.6484C201.301 50.4258 201.816 50.3145 202.385 50.3145C202.842 50.3145 203.255 50.3789 203.624 50.5078C203.999 50.6309 204.318 50.833 204.582 51.1143C204.852 51.3955 205.057 51.7617 205.197 52.2129C205.338 52.6582 205.408 53.2061 205.408 53.8564V60H203.281V53.8477C203.281 53.3906 203.214 53.0303 203.079 52.7666C202.95 52.4971 202.76 52.3066 202.508 52.1953C202.262 52.0781 201.954 52.0195 201.585 52.0195C201.222 52.0195 200.896 52.0957 200.609 52.248C200.322 52.4004 200.079 52.6084 199.88 52.8721C199.687 53.1357 199.537 53.4404 199.432 53.7861C199.326 54.1318 199.273 54.501 199.273 54.8936ZM211.93 50.4902V52.0371H206.568V50.4902H211.93ZM208.115 48.1611H210.233V57.3721C210.233 57.665 210.274 57.8906 210.356 58.0488C210.444 58.2012 210.564 58.3037 210.717 58.3564C210.869 58.4092 211.048 58.4355 211.253 58.4355C211.399 58.4355 211.54 58.4268 211.675 58.4092C211.81 58.3916 211.918 58.374 212 58.3564L212.009 59.9736C211.833 60.0264 211.628 60.0732 211.394 60.1143C211.165 60.1553 210.901 60.1758 210.603 60.1758C210.116 60.1758 209.686 60.0908 209.311 59.9209C208.936 59.7451 208.643 59.4609 208.432 59.0684C208.221 58.6758 208.115 58.1543 208.115 57.5039V48.1611Z" fill="black"/>
<rect width="40" height="40" transform="translate(60 75)" fill="#219653"/>
<path d="M80 102.352L86.0833 100.723L88.625 109L80 102.352ZM94 91.6541H83.2917L80 81L76.7083 91.6541H66L74.6667 98.2579L71.375 108.912L80.0417 102.308L85.375 98.2579L94 91.6541Z" fill="white"/>
<rect width="40" height="40" transform="translate(108 75)" fill="#219653"/>
<path d="M128 102.352L134.083 100.723L136.625 109L128 102.352ZM142 91.6541H131.292L128 81L124.708 91.6541H114L122.667 98.2579L119.375 108.912L128.042 102.308L133.375 98.2579L142 91.6541Z" fill="white"/>
<rect width="40" height="40" transform="translate(156 75)" fill="#219653"/>
<path d="M176 102.352L182.083 100.723L184.625 109L176 102.352ZM190 91.6541H179.292L176 81L172.708 91.6541H162L170.667 98.2579L167.375 108.912L176.042 102.308L181.375 98.2579L190 91.6541Z" fill="white"/>
<rect width="40" height="40" transform="translate(204 75)" fill="#219653"/>
<path d="M224 102.352L230.083 100.723L232.625 109L224 102.352ZM238 91.6541H227.292L224 81L220.708 91.6541H210L218.667 98.2579L215.375 108.912L224.042 102.308L229.375 98.2579L238 91.6541Z" fill="white"/>
<rect width="40" height="40" transform="translate(252 75)" fill="#219653"/>
<path d="M272 102.352L278.083 100.723L280.625 109L272 102.352ZM286 91.6541H275.292L272 81L268.708 91.6541H258L266.667 98.2579L263.375 108.912L272.042 102.308L277.375 98.2579L286 91.6541Z" fill="white"/>
<path d="M112.412 134.215H109.609L109.596 133.504H112.009C112.501 133.504 112.92 133.433 113.267 133.292C113.613 133.151 113.875 132.941 114.053 132.663C114.235 132.381 114.326 132.034 114.326 131.624C114.326 131.205 114.237 130.858 114.06 130.585C113.882 130.307 113.615 130.102 113.26 129.97C112.904 129.838 112.458 129.771 111.92 129.771H109.828V139H108.987V129.047H111.92C112.426 129.047 112.879 129.097 113.28 129.197C113.681 129.298 114.023 129.455 114.306 129.669C114.588 129.883 114.802 130.154 114.948 130.482C115.099 130.806 115.174 131.193 115.174 131.645C115.174 132.055 115.083 132.426 114.9 132.759C114.718 133.087 114.461 133.356 114.128 133.565C113.8 133.771 113.406 133.898 112.945 133.948L112.412 134.215ZM112.351 139H109.343L109.773 138.282H112.351C112.843 138.282 113.262 138.2 113.608 138.036C113.959 137.868 114.228 137.628 114.415 137.318C114.602 137.008 114.695 136.639 114.695 136.211C114.695 135.833 114.613 135.493 114.449 135.192C114.285 134.892 114.035 134.655 113.697 134.481C113.36 134.304 112.932 134.215 112.412 134.215H110.669L110.683 133.504H113.15L113.301 133.757C113.747 133.802 114.137 133.941 114.47 134.174C114.807 134.402 115.067 134.691 115.249 135.042C115.436 135.393 115.529 135.778 115.529 136.197C115.529 136.799 115.395 137.309 115.126 137.729C114.862 138.143 114.49 138.46 114.012 138.679C113.538 138.893 112.984 139 112.351 139ZM121.88 137.674V133.859C121.88 133.508 121.807 133.205 121.661 132.95C121.515 132.695 121.301 132.499 121.019 132.362C120.736 132.226 120.387 132.157 119.973 132.157C119.59 132.157 119.248 132.226 118.947 132.362C118.651 132.494 118.416 132.674 118.243 132.902C118.075 133.126 117.99 133.374 117.99 133.647L117.17 133.641C117.17 133.363 117.238 133.094 117.375 132.834C117.512 132.574 117.705 132.342 117.956 132.137C118.207 131.932 118.505 131.77 118.852 131.651C119.202 131.528 119.588 131.467 120.007 131.467C120.535 131.467 121 131.556 121.401 131.733C121.807 131.911 122.124 132.178 122.352 132.533C122.579 132.889 122.693 133.335 122.693 133.873V137.448C122.693 137.703 122.712 137.968 122.748 138.241C122.789 138.515 122.846 138.74 122.919 138.918V139H122.051C121.996 138.836 121.953 138.631 121.921 138.385C121.894 138.134 121.88 137.897 121.88 137.674ZM122.071 134.693L122.085 135.322H120.479C120.059 135.322 119.683 135.361 119.351 135.438C119.022 135.511 118.744 135.621 118.517 135.767C118.289 135.908 118.113 136.079 117.99 136.279C117.872 136.48 117.812 136.708 117.812 136.963C117.812 137.227 117.879 137.469 118.011 137.688C118.147 137.906 118.339 138.082 118.585 138.214C118.836 138.341 119.132 138.405 119.474 138.405C119.929 138.405 120.33 138.321 120.677 138.152C121.028 137.984 121.317 137.763 121.545 137.489C121.773 137.216 121.925 136.917 122.003 136.594L122.358 137.065C122.299 137.293 122.19 137.528 122.03 137.77C121.875 138.007 121.673 138.23 121.422 138.439C121.171 138.645 120.875 138.813 120.533 138.945C120.196 139.073 119.813 139.137 119.385 139.137C118.902 139.137 118.48 139.046 118.12 138.863C117.765 138.681 117.487 138.433 117.286 138.118C117.09 137.799 116.992 137.439 116.992 137.038C116.992 136.674 117.07 136.348 117.225 136.061C117.38 135.769 117.603 135.523 117.895 135.322C118.191 135.117 118.546 134.962 118.961 134.857C119.38 134.748 119.85 134.693 120.369 134.693H122.071ZM129.317 137.113C129.317 136.913 129.267 136.715 129.167 136.519C129.067 136.323 128.873 136.143 128.586 135.979C128.303 135.814 127.886 135.675 127.335 135.562C126.925 135.47 126.558 135.368 126.234 135.254C125.915 135.14 125.646 135.003 125.428 134.844C125.209 134.684 125.043 134.493 124.929 134.27C124.815 134.046 124.758 133.782 124.758 133.477C124.758 133.203 124.817 132.946 124.936 132.704C125.059 132.458 125.232 132.244 125.455 132.062C125.683 131.875 125.956 131.729 126.275 131.624C126.599 131.519 126.961 131.467 127.362 131.467C127.932 131.467 128.42 131.565 128.825 131.761C129.235 131.952 129.548 132.214 129.762 132.547C129.98 132.88 130.09 133.256 130.09 133.675H129.276C129.276 133.42 129.201 133.178 129.051 132.95C128.905 132.722 128.688 132.535 128.401 132.39C128.119 132.244 127.772 132.171 127.362 132.171C126.938 132.171 126.594 132.235 126.33 132.362C126.066 132.49 125.872 132.652 125.749 132.848C125.631 133.044 125.571 133.246 125.571 133.456C125.571 133.62 125.596 133.771 125.646 133.907C125.701 134.039 125.797 134.162 125.934 134.276C126.075 134.39 126.275 134.497 126.535 134.598C126.795 134.698 127.132 134.796 127.547 134.892C128.144 135.024 128.632 135.186 129.01 135.377C129.393 135.564 129.675 135.796 129.857 136.074C130.04 136.348 130.131 136.68 130.131 137.072C130.131 137.378 130.067 137.658 129.939 137.913C129.812 138.164 129.627 138.38 129.386 138.562C129.149 138.745 128.862 138.886 128.524 138.986C128.192 139.087 127.818 139.137 127.403 139.137C126.779 139.137 126.25 139.034 125.817 138.829C125.389 138.619 125.063 138.346 124.84 138.009C124.621 137.667 124.512 137.305 124.512 136.922H125.325C125.353 137.305 125.473 137.608 125.688 137.831C125.902 138.05 126.164 138.205 126.474 138.296C126.788 138.387 127.098 138.433 127.403 138.433C127.823 138.433 128.174 138.371 128.456 138.248C128.739 138.125 128.953 137.963 129.099 137.763C129.244 137.562 129.317 137.346 129.317 137.113ZM134.841 139.137C134.358 139.137 133.913 139.048 133.508 138.87C133.107 138.692 132.756 138.442 132.455 138.118C132.159 137.795 131.929 137.412 131.765 136.97C131.605 136.523 131.525 136.035 131.525 135.507V135.213C131.525 134.643 131.61 134.128 131.778 133.668C131.947 133.208 132.179 132.813 132.476 132.485C132.772 132.157 133.109 131.907 133.487 131.733C133.87 131.556 134.271 131.467 134.69 131.467C135.16 131.467 135.577 131.551 135.941 131.72C136.306 131.884 136.611 132.118 136.857 132.424C137.108 132.725 137.297 133.082 137.425 133.497C137.552 133.907 137.616 134.361 137.616 134.857V135.356H132.018V134.659H136.803V134.563C136.794 134.149 136.709 133.761 136.55 133.401C136.395 133.037 136.162 132.741 135.853 132.513C135.543 132.285 135.155 132.171 134.69 132.171C134.344 132.171 134.025 132.244 133.733 132.39C133.446 132.535 133.198 132.745 132.988 133.019C132.783 133.287 132.624 133.609 132.51 133.982C132.4 134.352 132.346 134.762 132.346 135.213V135.507C132.346 135.917 132.405 136.3 132.523 136.655C132.646 137.006 132.82 137.316 133.043 137.585C133.271 137.854 133.54 138.063 133.85 138.214C134.16 138.364 134.501 138.439 134.875 138.439C135.312 138.439 135.7 138.36 136.037 138.2C136.374 138.036 136.677 137.779 136.946 137.428L137.459 137.824C137.299 138.061 137.099 138.28 136.857 138.48C136.62 138.681 136.336 138.84 136.003 138.959C135.67 139.077 135.283 139.137 134.841 139.137ZM144.035 137.564V128.5H144.855V139H144.09L144.035 137.564ZM138.901 135.377V135.233C138.901 134.659 138.967 134.142 139.1 133.682C139.232 133.217 139.421 132.82 139.667 132.492C139.918 132.16 140.218 131.907 140.569 131.733C140.92 131.556 141.317 131.467 141.759 131.467C142.192 131.467 142.575 131.537 142.907 131.679C143.24 131.82 143.525 132.023 143.762 132.287C144.003 132.551 144.197 132.866 144.343 133.23C144.493 133.595 144.603 134.001 144.671 134.447V136.272C144.616 136.692 144.516 137.077 144.37 137.428C144.224 137.774 144.031 138.077 143.789 138.337C143.548 138.592 143.256 138.79 142.914 138.932C142.577 139.068 142.187 139.137 141.745 139.137C141.308 139.137 140.913 139.046 140.562 138.863C140.212 138.681 139.913 138.424 139.667 138.091C139.421 137.754 139.232 137.355 139.1 136.895C138.967 136.434 138.901 135.928 138.901 135.377ZM139.722 135.233V135.377C139.722 135.81 139.765 136.211 139.852 136.58C139.938 136.949 140.07 137.271 140.248 137.544C140.426 137.817 140.651 138.032 140.925 138.187C141.198 138.341 141.522 138.419 141.896 138.419C142.365 138.419 142.759 138.33 143.078 138.152C143.397 137.97 143.652 137.731 143.844 137.435C144.035 137.134 144.174 136.806 144.261 136.45V134.324C144.206 134.083 144.126 133.837 144.021 133.586C143.917 133.335 143.773 133.105 143.591 132.896C143.413 132.681 143.185 132.51 142.907 132.383C142.634 132.251 142.301 132.185 141.909 132.185C141.531 132.185 141.205 132.262 140.932 132.417C140.658 132.572 140.43 132.788 140.248 133.066C140.07 133.34 139.938 133.661 139.852 134.03C139.765 134.399 139.722 134.8 139.722 135.233ZM149.976 135.418V135.192C149.976 134.655 150.053 134.158 150.208 133.702C150.363 133.246 150.584 132.852 150.871 132.52C151.163 132.187 151.511 131.929 151.917 131.747C152.323 131.56 152.774 131.467 153.271 131.467C153.772 131.467 154.225 131.56 154.631 131.747C155.036 131.929 155.385 132.187 155.677 132.52C155.968 132.852 156.192 133.246 156.347 133.702C156.502 134.158 156.579 134.655 156.579 135.192V135.418C156.579 135.956 156.502 136.452 156.347 136.908C156.192 137.359 155.968 137.751 155.677 138.084C155.39 138.417 155.043 138.676 154.638 138.863C154.232 139.046 153.781 139.137 153.284 139.137C152.783 139.137 152.329 139.046 151.924 138.863C151.518 138.676 151.17 138.417 150.878 138.084C150.586 137.751 150.363 137.359 150.208 136.908C150.053 136.452 149.976 135.956 149.976 135.418ZM150.789 135.192V135.418C150.789 135.824 150.844 136.209 150.953 136.573C151.062 136.933 151.222 137.255 151.432 137.537C151.641 137.815 151.901 138.034 152.211 138.193C152.521 138.353 152.879 138.433 153.284 138.433C153.685 138.433 154.038 138.353 154.344 138.193C154.654 138.034 154.913 137.815 155.123 137.537C155.333 137.255 155.49 136.933 155.595 136.573C155.704 136.209 155.759 135.824 155.759 135.418V135.192C155.759 134.791 155.704 134.411 155.595 134.051C155.49 133.691 155.33 133.369 155.116 133.087C154.907 132.804 154.647 132.581 154.337 132.417C154.027 132.253 153.672 132.171 153.271 132.171C152.869 132.171 152.514 132.253 152.204 132.417C151.899 132.581 151.639 132.804 151.425 133.087C151.215 133.369 151.056 133.691 150.946 134.051C150.841 134.411 150.789 134.791 150.789 135.192ZM159.088 133.183V139H158.274V131.604H159.054L159.088 133.183ZM158.903 134.844L158.541 134.639C158.568 134.201 158.657 133.791 158.808 133.408C158.958 133.025 159.161 132.688 159.416 132.396C159.676 132.105 159.979 131.877 160.325 131.713C160.676 131.549 161.063 131.467 161.487 131.467C161.856 131.467 162.187 131.517 162.479 131.617C162.77 131.717 163.019 131.877 163.224 132.096C163.429 132.314 163.584 132.595 163.688 132.937C163.798 133.278 163.853 133.695 163.853 134.188V139H163.032V134.181C163.032 133.67 162.962 133.271 162.82 132.984C162.679 132.693 162.479 132.485 162.219 132.362C161.959 132.239 161.651 132.178 161.296 132.178C160.904 132.178 160.56 132.264 160.264 132.438C159.972 132.606 159.726 132.827 159.525 133.101C159.329 133.369 159.179 133.659 159.074 133.969C158.969 134.274 158.912 134.566 158.903 134.844ZM175.877 137.462V139H169.068V137.688L172.288 134.235C172.612 133.875 172.867 133.559 173.054 133.285C173.241 133.007 173.375 132.759 173.457 132.54C173.544 132.317 173.587 132.105 173.587 131.904C173.587 131.604 173.537 131.346 173.437 131.132C173.336 130.913 173.188 130.744 172.992 130.626C172.801 130.507 172.564 130.448 172.281 130.448C171.98 130.448 171.721 130.521 171.502 130.667C171.288 130.813 171.124 131.016 171.01 131.275C170.9 131.535 170.846 131.829 170.846 132.157H168.87C168.87 131.565 169.011 131.022 169.294 130.53C169.576 130.034 169.975 129.639 170.49 129.348C171.005 129.051 171.616 128.903 172.322 128.903C173.02 128.903 173.607 129.017 174.086 129.245C174.569 129.468 174.934 129.792 175.18 130.216C175.43 130.635 175.556 131.136 175.556 131.72C175.556 132.048 175.503 132.369 175.398 132.684C175.294 132.993 175.143 133.303 174.947 133.613C174.756 133.919 174.523 134.229 174.25 134.543C173.977 134.857 173.674 135.183 173.341 135.521L171.611 137.462H175.877ZM178.96 134.468L177.388 134.092L177.955 129.047H183.547V130.64H179.575L179.329 132.848C179.461 132.77 179.662 132.688 179.931 132.602C180.2 132.51 180.5 132.465 180.833 132.465C181.316 132.465 181.744 132.54 182.118 132.69C182.492 132.841 182.809 133.06 183.068 133.347C183.333 133.634 183.533 133.985 183.67 134.399C183.807 134.814 183.875 135.284 183.875 135.808C183.875 136.25 183.807 136.671 183.67 137.072C183.533 137.469 183.326 137.824 183.048 138.139C182.77 138.449 182.421 138.692 182.002 138.87C181.583 139.048 181.086 139.137 180.512 139.137C180.083 139.137 179.669 139.073 179.268 138.945C178.871 138.818 178.513 138.629 178.194 138.378C177.88 138.127 177.627 137.824 177.436 137.469C177.249 137.109 177.151 136.699 177.142 136.238H179.097C179.124 136.521 179.197 136.765 179.315 136.97C179.438 137.17 179.6 137.325 179.801 137.435C180.001 137.544 180.236 137.599 180.505 137.599C180.756 137.599 180.97 137.551 181.147 137.455C181.325 137.359 181.469 137.227 181.578 137.059C181.688 136.885 181.767 136.685 181.817 136.457C181.872 136.225 181.899 135.974 181.899 135.705C181.899 135.436 181.868 135.192 181.804 134.974C181.74 134.755 181.642 134.566 181.51 134.406C181.378 134.247 181.209 134.124 181.004 134.037C180.803 133.951 180.569 133.907 180.3 133.907C179.935 133.907 179.653 133.964 179.452 134.078C179.256 134.192 179.092 134.322 178.96 134.468ZM190.226 128.944H190.513V130.517H190.396C189.877 130.517 189.414 130.594 189.009 130.749C188.603 130.904 188.259 131.125 187.977 131.412C187.699 131.695 187.484 132.036 187.334 132.438C187.188 132.839 187.115 133.287 187.115 133.784V135.438C187.115 135.794 187.149 136.108 187.218 136.382C187.291 136.651 187.393 136.876 187.525 137.059C187.662 137.236 187.822 137.371 188.004 137.462C188.186 137.549 188.391 137.592 188.619 137.592C188.833 137.592 189.027 137.546 189.2 137.455C189.378 137.364 189.528 137.236 189.651 137.072C189.779 136.904 189.875 136.708 189.938 136.484C190.007 136.257 190.041 136.008 190.041 135.739C190.041 135.47 190.007 135.222 189.938 134.994C189.875 134.766 189.779 134.57 189.651 134.406C189.524 134.238 189.369 134.108 189.187 134.017C189.004 133.925 188.799 133.88 188.571 133.88C188.261 133.88 187.988 133.953 187.751 134.099C187.519 134.24 187.336 134.422 187.204 134.646C187.072 134.869 187.001 135.104 186.992 135.35L186.397 134.967C186.411 134.616 186.484 134.283 186.616 133.969C186.753 133.654 186.94 133.376 187.177 133.135C187.418 132.889 187.708 132.697 188.045 132.561C188.382 132.419 188.763 132.349 189.187 132.349C189.651 132.349 190.059 132.438 190.41 132.615C190.766 132.793 191.062 133.037 191.299 133.347C191.536 133.657 191.714 134.014 191.832 134.42C191.951 134.826 192.01 135.258 192.01 135.719C192.01 136.202 191.93 136.651 191.771 137.065C191.616 137.48 191.39 137.842 191.094 138.152C190.802 138.462 190.451 138.704 190.041 138.877C189.631 139.05 189.171 139.137 188.66 139.137C188.132 139.137 187.651 139.041 187.218 138.85C186.789 138.654 186.42 138.38 186.11 138.029C185.8 137.678 185.561 137.261 185.393 136.778C185.229 136.295 185.146 135.767 185.146 135.192V134.427C185.146 133.625 185.263 132.891 185.495 132.226C185.732 131.556 186.072 130.977 186.514 130.489C186.956 129.997 187.489 129.617 188.113 129.348C188.738 129.079 189.442 128.944 190.226 128.944ZM198.723 133.217V139H196.754V131.604H198.606L198.723 133.217ZM200.951 131.556L200.917 133.381C200.821 133.367 200.705 133.356 200.568 133.347C200.436 133.333 200.315 133.326 200.206 133.326C199.928 133.326 199.687 133.363 199.481 133.436C199.281 133.504 199.112 133.606 198.976 133.743C198.843 133.88 198.743 134.046 198.675 134.242C198.611 134.438 198.575 134.661 198.565 134.912L198.169 134.789C198.169 134.311 198.217 133.871 198.312 133.47C198.408 133.064 198.547 132.711 198.729 132.41C198.916 132.109 199.144 131.877 199.413 131.713C199.682 131.549 199.99 131.467 200.336 131.467C200.445 131.467 200.557 131.476 200.671 131.494C200.785 131.508 200.878 131.528 200.951 131.556ZM205.148 139.137C204.574 139.137 204.059 139.046 203.604 138.863C203.148 138.676 202.76 138.419 202.441 138.091C202.127 137.763 201.885 137.382 201.717 136.949C201.548 136.512 201.464 136.047 201.464 135.555V135.281C201.464 134.721 201.544 134.208 201.703 133.743C201.863 133.278 202.09 132.875 202.387 132.533C202.688 132.191 203.052 131.929 203.48 131.747C203.909 131.56 204.392 131.467 204.93 131.467C205.454 131.467 205.919 131.553 206.324 131.727C206.73 131.9 207.069 132.146 207.343 132.465C207.621 132.784 207.83 133.167 207.972 133.613C208.113 134.055 208.184 134.548 208.184 135.09V135.91H202.305V134.598H206.249V134.447C206.249 134.174 206.199 133.93 206.099 133.716C206.003 133.497 205.857 133.324 205.661 133.196C205.465 133.069 205.215 133.005 204.909 133.005C204.649 133.005 204.426 133.062 204.239 133.176C204.052 133.29 203.9 133.449 203.781 133.654C203.667 133.859 203.581 134.101 203.521 134.379C203.467 134.652 203.439 134.953 203.439 135.281V135.555C203.439 135.851 203.48 136.124 203.562 136.375C203.649 136.626 203.77 136.842 203.925 137.024C204.084 137.207 204.276 137.348 204.499 137.448C204.727 137.549 204.984 137.599 205.271 137.599C205.627 137.599 205.957 137.53 206.263 137.394C206.573 137.252 206.839 137.04 207.062 136.758L208.02 137.797C207.865 138.02 207.653 138.234 207.384 138.439C207.119 138.645 206.8 138.813 206.427 138.945C206.053 139.073 205.627 139.137 205.148 139.137ZM211.725 137.564L213.365 131.604H215.423L212.928 139H211.684L211.725 137.564ZM210.597 131.604L212.244 137.571L212.278 139H211.027L208.532 131.604H210.597ZM218.383 131.604V139H216.407V131.604H218.383ZM216.284 129.676C216.284 129.389 216.384 129.152 216.585 128.965C216.785 128.778 217.054 128.685 217.392 128.685C217.724 128.685 217.991 128.778 218.191 128.965C218.396 129.152 218.499 129.389 218.499 129.676C218.499 129.963 218.396 130.2 218.191 130.387C217.991 130.574 217.724 130.667 217.392 130.667C217.054 130.667 216.785 130.574 216.585 130.387C216.384 130.2 216.284 129.963 216.284 129.676ZM223.414 139.137C222.84 139.137 222.325 139.046 221.869 138.863C221.413 138.676 221.026 138.419 220.707 138.091C220.393 137.763 220.151 137.382 219.982 136.949C219.814 136.512 219.729 136.047 219.729 135.555V135.281C219.729 134.721 219.809 134.208 219.969 133.743C220.128 133.278 220.356 132.875 220.652 132.533C220.953 132.191 221.318 131.929 221.746 131.747C222.174 131.56 222.658 131.467 223.195 131.467C223.719 131.467 224.184 131.553 224.59 131.727C224.995 131.9 225.335 132.146 225.608 132.465C225.886 132.784 226.096 133.167 226.237 133.613C226.379 134.055 226.449 134.548 226.449 135.09V135.91H220.57V134.598H224.515V134.447C224.515 134.174 224.465 133.93 224.364 133.716C224.269 133.497 224.123 133.324 223.927 133.196C223.731 133.069 223.48 133.005 223.175 133.005C222.915 133.005 222.692 133.062 222.505 133.176C222.318 133.29 222.165 133.449 222.047 133.654C221.933 133.859 221.846 134.101 221.787 134.379C221.732 134.652 221.705 134.953 221.705 135.281V135.555C221.705 135.851 221.746 136.124 221.828 136.375C221.915 136.626 222.035 136.842 222.19 137.024C222.35 137.207 222.541 137.348 222.765 137.448C222.993 137.549 223.25 137.599 223.537 137.599C223.893 137.599 224.223 137.53 224.528 137.394C224.838 137.252 225.105 137.04 225.328 136.758L226.285 137.797C226.13 138.02 225.918 138.234 225.649 138.439C225.385 138.645 225.066 138.813 224.692 138.945C224.319 139.073 223.893 139.137 223.414 139.137ZM229.683 137.086L231.221 131.604H232.472L232.068 133.757L230.53 139H229.484L229.683 137.086ZM228.903 131.604L230.004 137.079L230.106 139H228.876L227.003 131.604H228.903ZM233.88 136.99L234.953 131.604H236.86L234.987 139H233.764L233.88 136.99ZM232.643 131.604L234.174 137.045L234.386 139H233.333L231.795 133.764L231.405 131.604H232.643ZM241.851 136.956C241.851 136.815 241.81 136.687 241.728 136.573C241.646 136.459 241.493 136.354 241.27 136.259C241.051 136.159 240.734 136.067 240.319 135.985C239.946 135.903 239.597 135.801 239.273 135.678C238.954 135.55 238.676 135.397 238.439 135.22C238.207 135.042 238.025 134.832 237.893 134.591C237.76 134.345 237.694 134.064 237.694 133.75C237.694 133.44 237.76 133.148 237.893 132.875C238.029 132.602 238.223 132.36 238.474 132.15C238.729 131.936 239.039 131.77 239.403 131.651C239.772 131.528 240.187 131.467 240.647 131.467C241.29 131.467 241.841 131.569 242.302 131.774C242.767 131.979 243.122 132.262 243.368 132.622C243.619 132.978 243.744 133.383 243.744 133.839H241.775C241.775 133.647 241.734 133.477 241.652 133.326C241.575 133.171 241.452 133.05 241.283 132.964C241.119 132.873 240.905 132.827 240.641 132.827C240.422 132.827 240.233 132.866 240.073 132.943C239.914 133.016 239.791 133.117 239.704 133.244C239.622 133.367 239.581 133.504 239.581 133.654C239.581 133.768 239.604 133.871 239.649 133.962C239.7 134.049 239.779 134.128 239.889 134.201C239.998 134.274 240.139 134.342 240.312 134.406C240.49 134.465 240.709 134.52 240.969 134.57C241.502 134.68 241.978 134.823 242.397 135.001C242.817 135.174 243.149 135.411 243.396 135.712C243.642 136.008 243.765 136.398 243.765 136.881C243.765 137.209 243.692 137.51 243.546 137.783C243.4 138.057 243.19 138.296 242.917 138.501C242.644 138.701 242.315 138.859 241.933 138.973C241.554 139.082 241.128 139.137 240.654 139.137C239.966 139.137 239.383 139.014 238.904 138.768C238.43 138.521 238.07 138.209 237.824 137.831C237.583 137.448 237.462 137.056 237.462 136.655H239.328C239.337 136.924 239.406 137.141 239.533 137.305C239.665 137.469 239.832 137.587 240.032 137.66C240.237 137.733 240.458 137.77 240.695 137.77C240.951 137.77 241.162 137.735 241.331 137.667C241.5 137.594 241.627 137.498 241.714 137.38C241.805 137.257 241.851 137.116 241.851 136.956Z" fill="black"/>
<path d="M164.898 140.367H244.277V141.051H164.898V140.367Z" fill="black"/>
<path d="M139.5 172.302L145.009 170.906L147.311 178L139.5 172.302ZM152.179 163.132H142.481L139.5 154L136.518 163.132H126.82L134.669 168.792L131.688 177.925L139.537 172.264L144.367 168.792L152.179 163.132Z" fill="#219653"/>
<path d="M162.015 159.625V171H160.069V159.625H162.015ZM165.585 159.625V161.188H156.53V159.625H165.585ZM168.226 164.156V171H166.343V162.547H168.14L168.226 164.156ZM170.812 162.492L170.796 164.242C170.681 164.221 170.556 164.206 170.421 164.195C170.291 164.185 170.16 164.18 170.03 164.18C169.707 164.18 169.424 164.227 169.179 164.32C168.934 164.409 168.728 164.539 168.562 164.711C168.4 164.878 168.275 165.081 168.187 165.32C168.098 165.56 168.046 165.828 168.03 166.125L167.601 166.156C167.601 165.625 167.653 165.133 167.757 164.68C167.861 164.227 168.017 163.828 168.226 163.484C168.439 163.141 168.705 162.872 169.022 162.68C169.345 162.487 169.718 162.391 170.14 162.391C170.254 162.391 170.377 162.401 170.507 162.422C170.642 162.443 170.744 162.466 170.812 162.492ZM177.077 169.008V162.547H178.968V171H177.187L177.077 169.008ZM177.343 167.25L177.976 167.234C177.976 167.802 177.913 168.326 177.788 168.805C177.663 169.279 177.47 169.693 177.21 170.047C176.95 170.396 176.616 170.669 176.21 170.867C175.804 171.06 175.317 171.156 174.749 171.156C174.338 171.156 173.96 171.096 173.616 170.977C173.272 170.857 172.976 170.672 172.726 170.422C172.481 170.172 172.291 169.846 172.155 169.445C172.02 169.044 171.952 168.565 171.952 168.008V162.547H173.835V168.023C173.835 168.331 173.871 168.589 173.944 168.797C174.017 169 174.116 169.164 174.241 169.289C174.366 169.414 174.512 169.503 174.679 169.555C174.845 169.607 175.022 169.633 175.21 169.633C175.746 169.633 176.168 169.529 176.476 169.32C176.788 169.107 177.009 168.82 177.14 168.461C177.275 168.102 177.343 167.698 177.343 167.25ZM185.64 168.711C185.64 168.523 185.593 168.354 185.499 168.203C185.405 168.047 185.226 167.906 184.96 167.781C184.7 167.656 184.314 167.542 183.804 167.438C183.356 167.339 182.944 167.221 182.569 167.086C182.2 166.945 181.882 166.776 181.616 166.578C181.351 166.38 181.145 166.146 180.999 165.875C180.853 165.604 180.78 165.292 180.78 164.938C180.78 164.594 180.856 164.268 181.007 163.961C181.158 163.654 181.374 163.383 181.655 163.148C181.937 162.914 182.278 162.729 182.679 162.594C183.085 162.458 183.538 162.391 184.038 162.391C184.746 162.391 185.353 162.51 185.858 162.75C186.369 162.984 186.759 163.305 187.03 163.711C187.301 164.112 187.437 164.565 187.437 165.07H185.554C185.554 164.846 185.496 164.638 185.382 164.445C185.272 164.247 185.106 164.089 184.882 163.969C184.658 163.844 184.377 163.781 184.038 163.781C183.715 163.781 183.447 163.833 183.233 163.938C183.025 164.036 182.869 164.167 182.765 164.328C182.666 164.49 182.616 164.667 182.616 164.859C182.616 165 182.642 165.128 182.694 165.242C182.752 165.352 182.845 165.453 182.976 165.547C183.106 165.635 183.283 165.719 183.507 165.797C183.736 165.875 184.022 165.951 184.366 166.023C185.012 166.159 185.567 166.333 186.03 166.547C186.499 166.755 186.858 167.026 187.108 167.359C187.358 167.688 187.483 168.104 187.483 168.609C187.483 168.984 187.403 169.328 187.241 169.641C187.085 169.948 186.856 170.216 186.554 170.445C186.252 170.669 185.89 170.844 185.468 170.969C185.051 171.094 184.582 171.156 184.062 171.156C183.296 171.156 182.647 171.021 182.116 170.75C181.585 170.474 181.181 170.122 180.905 169.695C180.634 169.263 180.499 168.815 180.499 168.352H182.319C182.34 168.701 182.437 168.979 182.608 169.188C182.785 169.391 183.004 169.539 183.265 169.633C183.53 169.721 183.804 169.766 184.085 169.766C184.424 169.766 184.707 169.721 184.937 169.633C185.166 169.539 185.34 169.414 185.46 169.258C185.58 169.096 185.64 168.914 185.64 168.711ZM193.007 162.547V163.922H188.241V162.547H193.007ZM189.616 160.477H191.499V168.664C191.499 168.924 191.535 169.125 191.608 169.266C191.687 169.401 191.793 169.492 191.929 169.539C192.064 169.586 192.223 169.609 192.405 169.609C192.535 169.609 192.66 169.602 192.78 169.586C192.9 169.57 192.996 169.555 193.069 169.539L193.077 170.977C192.921 171.023 192.739 171.065 192.53 171.102C192.327 171.138 192.093 171.156 191.827 171.156C191.395 171.156 191.012 171.081 190.679 170.93C190.345 170.773 190.085 170.521 189.897 170.172C189.71 169.823 189.616 169.359 189.616 168.781V160.477ZM196.351 164.172V174.25H194.468V162.547H196.202L196.351 164.172ZM201.858 166.695V166.859C201.858 167.474 201.785 168.044 201.64 168.57C201.499 169.091 201.288 169.547 201.007 169.938C200.731 170.323 200.39 170.622 199.983 170.836C199.577 171.049 199.108 171.156 198.577 171.156C198.051 171.156 197.59 171.06 197.194 170.867C196.804 170.669 196.473 170.391 196.202 170.031C195.931 169.672 195.713 169.25 195.546 168.766C195.384 168.276 195.27 167.74 195.202 167.156V166.523C195.27 165.904 195.384 165.341 195.546 164.836C195.713 164.331 195.931 163.896 196.202 163.531C196.473 163.167 196.804 162.885 197.194 162.688C197.585 162.49 198.041 162.391 198.562 162.391C199.093 162.391 199.564 162.495 199.976 162.703C200.387 162.906 200.733 163.198 201.015 163.578C201.296 163.953 201.507 164.406 201.647 164.938C201.788 165.464 201.858 166.049 201.858 166.695ZM199.976 166.859V166.695C199.976 166.305 199.939 165.943 199.866 165.609C199.793 165.271 199.679 164.974 199.522 164.719C199.366 164.464 199.166 164.266 198.921 164.125C198.681 163.979 198.392 163.906 198.054 163.906C197.72 163.906 197.434 163.964 197.194 164.078C196.955 164.188 196.754 164.341 196.593 164.539C196.431 164.737 196.306 164.969 196.218 165.234C196.129 165.495 196.067 165.779 196.03 166.086V167.602C196.093 167.977 196.2 168.32 196.351 168.633C196.502 168.945 196.715 169.195 196.991 169.383C197.272 169.565 197.632 169.656 198.069 169.656C198.408 169.656 198.697 169.583 198.937 169.438C199.176 169.292 199.371 169.091 199.522 168.836C199.679 168.576 199.793 168.276 199.866 167.938C199.939 167.599 199.976 167.24 199.976 166.859ZM205.476 162.547V171H203.585V162.547H205.476ZM203.46 160.328C203.46 160.042 203.554 159.805 203.741 159.617C203.934 159.424 204.2 159.328 204.538 159.328C204.871 159.328 205.134 159.424 205.327 159.617C205.52 159.805 205.616 160.042 205.616 160.328C205.616 160.609 205.52 160.844 205.327 161.031C205.134 161.219 204.871 161.312 204.538 161.312C204.2 161.312 203.934 161.219 203.741 161.031C203.554 160.844 203.46 160.609 203.46 160.328ZM209.554 159V171H207.663V159H209.554ZM211.257 166.867V166.688C211.257 166.078 211.345 165.513 211.522 164.992C211.7 164.466 211.955 164.01 212.288 163.625C212.627 163.234 213.038 162.932 213.522 162.719C214.012 162.5 214.564 162.391 215.179 162.391C215.799 162.391 216.351 162.5 216.835 162.719C217.325 162.932 217.739 163.234 218.077 163.625C218.416 164.01 218.674 164.466 218.851 164.992C219.028 165.513 219.116 166.078 219.116 166.688V166.867C219.116 167.477 219.028 168.042 218.851 168.562C218.674 169.083 218.416 169.539 218.077 169.93C217.739 170.315 217.327 170.617 216.843 170.836C216.358 171.049 215.809 171.156 215.194 171.156C214.575 171.156 214.02 171.049 213.53 170.836C213.046 170.617 212.634 170.315 212.296 169.93C211.957 169.539 211.7 169.083 211.522 168.562C211.345 168.042 211.257 167.477 211.257 166.867ZM213.14 166.688V166.867C213.14 167.247 213.179 167.607 213.257 167.945C213.335 168.284 213.457 168.581 213.624 168.836C213.791 169.091 214.004 169.292 214.265 169.438C214.525 169.583 214.835 169.656 215.194 169.656C215.543 169.656 215.845 169.583 216.101 169.438C216.361 169.292 216.575 169.091 216.741 168.836C216.908 168.581 217.03 168.284 217.108 167.945C217.192 167.607 217.233 167.247 217.233 166.867V166.688C217.233 166.312 217.192 165.958 217.108 165.625C217.03 165.286 216.905 164.987 216.733 164.727C216.567 164.466 216.353 164.263 216.093 164.117C215.838 163.966 215.533 163.891 215.179 163.891C214.825 163.891 214.517 163.966 214.257 164.117C214.002 164.263 213.791 164.466 213.624 164.727C213.457 164.987 213.335 165.286 213.257 165.625C213.179 165.958 213.14 166.312 213.14 166.688ZM224.569 162.547V163.922H219.804V162.547H224.569ZM221.179 160.477H223.062V168.664C223.062 168.924 223.098 169.125 223.171 169.266C223.249 169.401 223.356 169.492 223.491 169.539C223.627 169.586 223.785 169.609 223.968 169.609C224.098 169.609 224.223 169.602 224.343 169.586C224.463 169.57 224.559 169.555 224.632 169.539L224.64 170.977C224.483 171.023 224.301 171.065 224.093 171.102C223.89 171.138 223.655 171.156 223.39 171.156C222.957 171.156 222.575 171.081 222.241 170.93C221.908 170.773 221.647 170.521 221.46 170.172C221.272 169.823 221.179 169.359 221.179 168.781V160.477Z" fill="black"/>
</g>
<defs>
<filter id="filter0_ddd_2935_512" x="-24" y="-36" width="400" height="340" filterUnits="userSpaceOnUse" color-interpolation-filters="sRGB">
<feFlood flood-opacity="0" result="BackgroundImageFix"/>
<feColorMatrix in="SourceAlpha" type="matrix" values="0 0 0 0 0 0 0 0 0 0 0 0 0 0 0 0 0 0 127 0" result="hardAlpha"/>
<feOffset dy="12"/>
<feGaussianBlur stdDeviation="12"/>
<feColorMatrix type="matrix" values="0 0 0 0 0.107812 0 0 0 0 0.23 0 0 0 0 0.467187 0 0 0 0.05 0"/>
<feBlend mode="normal" in2="BackgroundImageFix" result="effect1_dropShadow_2935_512"/>
<feColorMatrix in="SourceAlpha" type="matrix" values="0 0 0 0 0 0 0 0 0 0 0 0 0 0 0 0 0 0 127 0" result="hardAlpha"/>
<feOffset dy="24"/>
<feGaussianBlur stdDeviation="30"/>
<feColorMatrix type="matrix" values="0 0 0 0 0.0247569 0 0 0 0 0.183589 0 0 0 0 0.49191 0 0 0 0.05 0"/>
<feBlend mode="normal" in2="effect1_dropShadow_2935_512" result="effect2_dropShadow_2935_512"/>
<feColorMatrix in="SourceAlpha" type="matrix" values="0 0 0 0 0 0 0 0 0 0 0 0 0 0 0 0 0 0 127 0" result="hardAlpha"/>
<feOffset dy="2"/>
<feGaussianBlur stdDeviation="2"/>
<feColorMatrix type="matrix" values="0 0 0 0 0.0284 0 0 0 0 0.017257 0 0 0 0 0.57441 0 0 0 0.1 0"/>
<feBlend mode="normal" in2="effect2_dropShadow_2935_512" result="effect3_dropShadow_2935_512"/>
<feBlend mode="normal" in="SourceGraphic" in2="effect3_dropShadow_2935_512" result="shape"/>
</filter>
</defs>
</svg>
