<svg width="195" height="184" viewBox="0 0 195 184" fill="none" xmlns="http://www.w3.org/2000/svg">
<path d="M153.22 0C137.27 0 124.31 12.98 124.31 28.91C124.31 44.84 137.27 57.82 153.22 57.82C169.17 57.82 182.11 44.86 182.11 28.91C182.11 12.96 169.15 0 153.22 0ZM153.22 47.44C143 47.44 134.69 39.13 134.69 28.91C134.69 18.69 143 10.38 153.22 10.38C163.44 10.38 171.73 18.69 171.73 28.91C171.73 39.13 163.42 47.44 153.22 47.44Z" fill="#E7FC41"/>
<path d="M176.71 68.2699L172.81 65.8799L153.24 90.3699L133.61 65.8799L129.73 68.2699C129 68.7099 111.97 79.3399 111.97 99.8199V137.85C111.97 143.73 116.75 148.51 122.63 148.51H129.8C129.95 148.51 130.07 148.63 130.07 148.78V172.89C130.07 178.77 134.85 183.52 140.7 183.52H165.73C171.59 183.52 176.36 178.76 176.36 172.89V148.78C176.36 148.63 176.48 148.51 176.63 148.51H183.8C189.68 148.51 194.45 143.73 194.45 137.85V99.8199C194.45 79.3399 177.44 68.7099 176.71 68.2699ZM184.07 137.85C184.07 138 183.95 138.12 183.8 138.12H176.63C170.75 138.12 165.97 142.9 165.97 148.78V172.89C165.97 173.04 165.87 173.16 165.72 173.16H140.69C140.57 173.16 140.44 173.04 140.44 172.89V148.78C140.44 142.9 135.66 138.12 129.79 138.12H122.62C122.47 138.12 122.35 138 122.35 137.85V99.8199C122.35 90.1399 127.79 83.4299 131.57 79.9399L146.59 98.6699L153.24 106.98L159.89 98.6699L174.87 79.9399C178.65 83.4499 184.07 90.1399 184.07 99.8199V137.85Z" fill="#E7FC41"/>
<path d="M96.21 124.79H57.91C55.25 115.4 53.57 104.44 53.57 91.6404C53.57 78.8404 55.17 68.3404 57.74 59.1104H96.21C99.08 59.1104 101.4 56.7804 101.4 53.9204C101.4 51.0604 99.07 48.7304 96.21 48.7304H61.3C72.2 21.8104 91.13 11.6104 93.56 10.3904C93.66 10.3704 93.73 10.3304 93.77 10.3104C94.25 10.0804 94.68 9.79044 95.04 9.46044C95.23 9.29044 95.39 9.13044 95.54 8.94044C95.69 8.75044 95.83 8.57044 95.96 8.36044C96.09 8.15044 96.21 7.94044 96.29 7.72044C96.39 7.51044 96.48 7.28044 96.54 7.06044C96.89 5.88044 96.81 4.59044 96.25 3.40044C96.06 2.98044 95.83 2.63044 95.54 2.30044C95.46 2.20044 95.37 2.09044 95.27 1.99044C95.02 1.74044 94.75 1.51044 94.46 1.33044C94.31 1.23044 94.17 1.14044 94.02 1.06044C93.87 0.980444 93.73 0.910444 93.56 0.850444C93.48 0.810444 93.41 0.770444 93.33 0.770444C93.21 0.710444 93.1 0.670444 92.98 0.650444C92.52 0.500444 92.02 0.440444 91.55 0.440444C55.87 0.420444 24.9 20.9204 9.8 50.7404C9.49 51.3404 9.2 51.9704 8.89 52.5904C3.2 64.5104 0 77.8704 0 91.9504C0 106.03 3.2 119.39 8.89 131.31C8.89 131.33 8.91 131.33 8.91 131.35C9.2 131.95 9.49 132.53 9.78 133.12C9.78 133.14 9.8 133.16 9.8 133.16C24.9 162.99 55.87 183.49 91.53 183.49C92.28 183.49 93.03 183.32 93.71 183.01C93.9 182.93 94.06 182.82 94.23 182.72C94.44 182.6 94.65 182.47 94.81 182.3H94.83C95.02 182.15 95.18 181.99 95.35 181.8C95.54 181.61 95.7 181.38 95.85 181.16C95.97 180.97 96.08 180.79 96.18 180.58C96.26 180.39 96.35 180.21 96.41 180.02C96.62 179.46 96.72 178.88 96.72 178.3C96.72 178.09 96.7 177.86 96.68 177.66C96.62 177.16 96.47 176.68 96.29 176.23C96.19 176.02 96.08 175.81 95.96 175.61C95.84 175.4 95.69 175.22 95.54 175.03V175.01C95.23 174.64 94.88 174.32 94.46 174.03L94.44 174.01C94.25 173.89 94.05 173.76 93.82 173.66C93.76 173.64 93.67 173.58 93.55 173.54C90.85 172.11 72.36 161.68 61.48 135.2H96.21C99.08 135.2 101.4 132.87 101.4 130.01C101.4 127.15 99.07 124.82 96.21 124.82V124.79ZM72.88 12.9604C65.07 20.5204 56.16 32.0304 50.16 48.7304H22.87C34.07 31.0104 51.91 17.9304 72.88 12.9604ZM10.39 91.9504C10.39 80.2804 12.86 69.1604 17.35 59.1104H47.01C44.62 68.5404 43.19 79.3204 43.19 91.6404C43.19 103.96 44.69 115.19 47.16 124.79H17.35C12.86 114.76 10.39 103.63 10.39 91.9504ZM73.19 171C52.09 166.12 34.12 152.97 22.88 135.17H50.34C56.43 151.89 65.38 163.44 73.19 171Z" fill="#E7FC41"/>
</svg>
