<svg width="19" height="19" viewBox="0 0 19 19" fill="none" xmlns="http://www.w3.org/2000/svg">
<path d="M8.41133 3.35057C8.754 2.29595 10.246 2.29595 10.5887 3.35057L11.3759 5.77338C11.5291 6.24502 11.9686 6.56434 12.4646 6.56434H15.012C16.1209 6.56434 16.582 7.98332 15.6849 8.63511L13.6239 10.1325C13.2227 10.424 13.0548 10.9406 13.2081 11.4123L13.9953 13.8351C14.338 14.8897 13.1309 15.7667 12.2338 15.1149L10.1728 13.6175C9.77163 13.326 9.22837 13.326 8.82717 13.6175L6.7662 15.1149C5.86909 15.7667 4.66204 14.8897 5.00471 13.8351L5.79192 11.4123C5.94517 10.9406 5.77729 10.424 5.37609 10.1325L3.31513 8.6351C2.41802 7.98331 2.87907 6.56434 3.98796 6.56434H6.53545C7.03136 6.56434 7.47087 6.24502 7.62412 5.77338L8.41133 3.35057Z" fill="#E7FC41"/>
</svg>
